<svg xmlns="http://www.w3.org/2000/svg" xmlns:xlink="http://www.w3.org/1999/xlink" viewBox="0 0 288.78 142.09"><defs><style>.cls-1{fill:#f3ffff;}.cls-2{fill:#ed1b26;}.cls-3{fill:#fff;}.cls-4{fill:url(#Degradado_sin_nombre_9);}.cls-5{fill:#ffb998;}.cls-6{fill:#4f160b;}.cls-7{fill:#f8fcff;}.cls-8{fill:#c51015;}.cls-9{fill:#710c10;}.cls-10{fill:url(#Degradado_sin_nombre_9-2);}.cls-11{fill:url(#Degradado_sin_nombre_9-3);}.cls-12{fill:url(#Degradado_sin_nombre_9-4);}</style><linearGradient id="Degradado_sin_nombre_9" x1="-1.48" y1="95.04" x2="278.24" y2="44" gradientUnits="userSpaceOnUse"><stop offset="0" stop-color="#a60c16"/><stop offset="0.12" stop-color="#b50f19"/><stop offset="0.36" stop-color="#dc1722"/><stop offset="0.46" stop-color="#ed1b26"/><stop offset="0.56" stop-color="#e81a25"/><stop offset="0.68" stop-color="#d81821"/><stop offset="0.82" stop-color="#be151b"/><stop offset="0.97" stop-color="#9a1112"/><stop offset="1" stop-color="#921010"/></linearGradient><linearGradient id="Degradado_sin_nombre_9-2" x1="92.93" y1="116.03" x2="378.91" y2="116.03" xlink:href="#Degradado_sin_nombre_9"/><linearGradient id="Degradado_sin_nombre_9-3" x1="197.76" y1="100.93" x2="271.6" y2="100.93" xlink:href="#Degradado_sin_nombre_9"/><linearGradient id="Degradado_sin_nombre_9-4" x1="228.34" y1="89.01" x2="228.72" y2="89.01" xlink:href="#Degradado_sin_nombre_9"/></defs><g id="Capa_2" data-name="Capa 2"><g id="Capa_1-2" data-name="Capa 1"><path class="cls-1" d="M259.29,97.9c-2.06-2.26-5.5-5.83-8-7.44a30.8,30.8,0,0,0-4-2.55,41.35,41.35,0,0,0-9.36-3.61,73.64,73.64,0,0,0-18.58-2.16c-29.79,0-71,13.4-110.44,35.87l-.53.3q-9.14,5.22-17.81,9.31A182.55,182.55,0,0,1,69.76,136c-12,3.95-23.21,5.94-33.44,5.94a67.28,67.28,0,0,1-13.41-1.29C6.25,137,.35,128.35,0,127.81a31.66,31.66,0,0,0,2.61,2.39l.08.07a41.57,41.57,0,0,0,8.47,5.28c5.93,2.78,14.18,5.14,25.16,5.14,15.55,0,33.34-4.66,53.1-13.89l18.36-9.56C147.52,94.49,189.24,80.9,219.36,80.9a86.1,86.1,0,0,1,11.84.79h0s0,0,0,0a55.14,55.14,0,0,1,12,3h0a39.78,39.78,0,0,1,8.13,4.77c1.14.87,2.17,1.74,3.1,2.6a44.15,44.15,0,0,1,3.91,4.14c.33.48.63,1,.92,1.48l.05.07Z"/><path class="cls-1" d="M259.43,97.8l-.14.1c-2.06-2.26-5.5-5.83-8-7.44a30.8,30.8,0,0,0-4-2.55,41.35,41.35,0,0,0-9.36-3.61,73.64,73.64,0,0,0-18.58-2.16c-29.79,0-71,13.4-110.44,35.87l-.53.3q-9.14,5.22-17.81,9.31A182.55,182.55,0,0,1,69.76,136c-12,3.95-23.21,5.94-33.44,5.94a67.28,67.28,0,0,1-13.41-1.29C6.25,137,.35,128.35,0,127.81a31.66,31.66,0,0,0,2.61,2.39l.08.07a41.57,41.57,0,0,0,8.47,5.28c5.93,2.78,14.18,5.14,25.16,5.14,15.55,0,33.34-4.66,53.1-13.89l18.36-9.56C147.52,94.49,189.24,80.9,219.36,80.9a86.1,86.1,0,0,1,11.84.79h0s0,0,0,0a55.14,55.14,0,0,1,12,3h0a39.78,39.78,0,0,1,8.13,4.77c1.14.87,2.17,1.74,3.1,2.6a44.15,44.15,0,0,1,3.91,4.14c.33.48.63,1,.92,1.48Z"/><path class="cls-1" d="M259.43,97.8l-.14.1c-2.06-2.26-5.5-5.83-8-7.44a30.8,30.8,0,0,0-4-2.55,41.35,41.35,0,0,0-9.36-3.61,73.64,73.64,0,0,0-18.58-2.16c-29.79,0-71,13.4-110.44,35.87l-.53.3q-9.14,5.22-17.81,9.31A182.55,182.55,0,0,1,69.76,136c-12,3.95-23.21,5.94-33.44,5.94a67.28,67.28,0,0,1-13.41-1.29C6.25,137,.35,128.35,0,127.81a31.66,31.66,0,0,0,2.61,2.39l.08.07a41.57,41.57,0,0,0,8.47,5.28c5.93,2.78,14.18,5.14,25.16,5.14,15.55,0,33.34-4.66,53.1-13.89q8.91-4.15,18.36-9.56C147.52,94.49,189.24,80.9,219.36,80.9a86.1,86.1,0,0,1,11.84.79h0s0,0,0,0a55.14,55.14,0,0,1,12,3h0a39.78,39.78,0,0,1,8.13,4.77c1.14.87,2.17,1.74,3.1,2.6a44.15,44.15,0,0,1,3.91,4.14c.33.48.63,1,.92,1.48Z"/><path class="cls-1" d="M73.66,43.6a1.55,1.55,0,0,0-.07-.23,4,4,0,0,0-1.38-2.21,3.16,3.16,0,0,0-1.73-.57,5.43,5.43,0,0,0-2.12.45l-2.64,1.12,1,4.2L67.06,48l.66,2.86,2.64-1.12a6.33,6.33,0,0,0,2.15-1.48,5,5,0,0,0,1.15-2.13,4.09,4.09,0,0,0,.14-1A5.72,5.72,0,0,0,73.66,43.6Zm-1.57,3.25a3.58,3.58,0,0,1-2,1.78l-1.31.56-.42-1.76L68,45.8l-.7-3,1.31-.56A2.81,2.81,0,0,1,70.72,42,2.28,2.28,0,0,1,72,43.39a3,3,0,0,1,.2.58,1.17,1.17,0,0,1,.06.2,4.71,4.71,0,0,1,.11,1.52A3.51,3.51,0,0,1,72.09,46.85Z"/><path class="cls-1" d="M77.91,44.34l-.26-1-.41-1.63L77,40.76l-.8-3.17-1.2.54-.12,0,1.05,4.12.41,1.63.74,2.89.69-.32.61-.27Z"/><path class="cls-1" d="M82.75,44a2.36,2.36,0,0,1-1.25-.25,2,2,0,0,1-.84-.91c0-.05-.06-.15-.11-.3l1.3-.6a1.15,1.15,0,0,0,.71.73,1.57,1.57,0,0,0,1.18-.12,2,2,0,0,0,1-.81,1.1,1.1,0,0,0,0-1,.94.94,0,0,0-.47-.47,1.67,1.67,0,0,0-.69-.16,8.74,8.74,0,0,0-1,0,12.35,12.35,0,0,1-1.39,0,2.49,2.49,0,0,1-1-.33,1.88,1.88,0,0,1-.8-.92,2.34,2.34,0,0,1-.21-1.41,2.61,2.61,0,0,1,.63-1.29,4,4,0,0,1,1.32-1,3.74,3.74,0,0,1,1.53-.38,2.25,2.25,0,0,1,1.25.34,2.15,2.15,0,0,1,.8,1l-1.38.64a1,1,0,0,0-.65-.65,1.55,1.55,0,0,0-1.11.13,1.91,1.91,0,0,0-.91.8,1.07,1.07,0,0,0,0,1,.86.86,0,0,0,.46.46,2,2,0,0,0,.7.17c.25,0,.59,0,1,0a13.62,13.62,0,0,1,1.4.05,2.57,2.57,0,0,1,1.06.33A2,2,0,0,1,86,40a2.19,2.19,0,0,1,.18,1.35,2.64,2.64,0,0,1-.65,1.29,4.05,4.05,0,0,1-1.38,1A3.94,3.94,0,0,1,82.75,44Z"/><path class="cls-1" d="M92,30.17l.3,1.1-2.11,1,2.07,7.49-1.3.62-2.07-7.49-2.12,1-.3-1.1Z"/><path class="cls-1" d="M99.25,27.37a1.92,1.92,0,0,1,1.27,1.09,2.9,2.9,0,0,1,.17.47,3.14,3.14,0,0,1-1.15,3.33l2.94,2.63-1.55.74-2.77-2.57-1,.47,1,3.44-1.3.62L94.44,29l2.74-1.31A3,3,0,0,1,99.25,27.37Zm0,1.85a1,1,0,0,0-.67-.61,1.54,1.54,0,0,0-1.08.19L96,29.48l.82,2.94,1.43-.68a2,2,0,0,0,1-.92,1.78,1.78,0,0,0,.07-1.25A2.84,2.84,0,0,0,99.23,29.22Z"/><path class="cls-1" d="M104.13,24.41l2.33,8.6-1.3.61L102.83,25Z"/><path class="cls-1" d="M113.22,24.08a3,3,0,0,1-.79,1.18,1.52,1.52,0,0,1,1.12.14,1.8,1.8,0,0,1,.83.89,1.9,1.9,0,0,1,.13.38,2.46,2.46,0,0,1,0,1.32,3,3,0,0,1-.69,1.25,4,4,0,0,1-1.31,1l-3.19,1.47L107.06,23l3-1.4a2.78,2.78,0,0,1,1.88-.3,1.65,1.65,0,0,1,1.14.95,2.77,2.77,0,0,1,.14.38A2.33,2.33,0,0,1,113.22,24.08Zm-1.33-.88a1,1,0,0,0-.63-.55,1.4,1.4,0,0,0-1,.15l-1.62.74.68,2.55,1.61-.74a1.88,1.88,0,0,0,.92-.8,1.41,1.41,0,0,0,.12-1.09Zm1.18,3.65a1,1,0,0,0-.69-.59,1.55,1.55,0,0,0-1,.15l-1.72.79.73,2.75,1.77-.81a2,2,0,0,0,.94-.84,1.54,1.54,0,0,0,.11-1.18Q113.1,26.92,113.07,26.85Z"/><path class="cls-1" d="M116.87,18.59l1.34,5.49a2.81,2.81,0,0,0,.16.49,1.37,1.37,0,0,0,.85.85,1.85,1.85,0,0,0,1.29-.16,2.35,2.35,0,0,0,1.22-1.09,2.39,2.39,0,0,0,.12-1.69L120.51,17l1.32-.58,1.34,5.5a4,4,0,0,1,0,2,3.81,3.81,0,0,1-.88,1.6,4.48,4.48,0,0,1-1.49,1.05,3.15,3.15,0,0,1-2.18.24,2.27,2.27,0,0,1-1.5-1.42,4.08,4.08,0,0,1-.24-.69l-1.34-5.5Z"/><path class="cls-1" d="M125.44,17.12a5.37,5.37,0,0,1,1.16-2.2,5.1,5.1,0,0,1,2-1.43,4,4,0,0,1,2.46-.26,3,3,0,0,1,1.89,1.34l-1.6.65a1.89,1.89,0,0,0-1.1-.62,2.49,2.49,0,0,0-1.36.2,3.5,3.5,0,0,0-1.36,1,3.64,3.64,0,0,0-.75,1.51,4.05,4.05,0,0,0,0,1.8,3.56,3.56,0,0,0,.21.67,2.4,2.4,0,0,0,1.31,1.42,2.48,2.48,0,0,0,1.94-.07,3.21,3.21,0,0,0,1.23-.87,2.87,2.87,0,0,0,.66-1.34l1.6-.65a5,5,0,0,1-1,2.53,5.41,5.41,0,0,1-2.16,1.62,4.06,4.06,0,0,1-2,.31A3.29,3.29,0,0,1,126.8,22a3.66,3.66,0,0,1-1.16-1.57,4.75,4.75,0,0,1-.26-.83A5.32,5.32,0,0,1,125.44,17.12Z"/><path class="cls-1" d="M136.63,10.47l1.66,8.75-1.34.51L135.28,11Z"/><path class="cls-1" d="M143,17a3.4,3.4,0,0,1-1.66-.83,4,4,0,0,1-1-1.68,5.42,5.42,0,0,1-.21-2.78,4.86,4.86,0,0,1,1.17-2.38,5.32,5.32,0,0,1,2.32-1.49,4,4,0,0,1,2-.18,3.31,3.31,0,0,1,1.65.82,3.79,3.79,0,0,1,1.05,1.67,5.47,5.47,0,0,1,.22,2.79,4.89,4.89,0,0,1-1.17,2.39A5.3,5.3,0,0,1,145,16.85,4,4,0,0,1,143,17Zm3.36-2.56a3.58,3.58,0,0,0,.74-1.74,4.33,4.33,0,0,0-.19-2,2.5,2.5,0,0,0-1.19-1.52,2.41,2.41,0,0,0-1.93-.05,3.27,3.27,0,0,0-1.57,1.08,3.55,3.55,0,0,0-.74,1.73,4.23,4.23,0,0,0,.2,2,2.5,2.5,0,0,0,1.19,1.52,2.39,2.39,0,0,0,1.92.06A3.2,3.2,0,0,0,146.34,14.47Z"/><path class="cls-1" d="M158.51,12.53l-1.39.39-4.84-5.43.68,6.62-1.39.39-.91-8.87,1.39-.4,4.85,5.42-.69-6.6,1.39-.4Z"/><path class="cls-1" d="M166.14,9.38l-.86.21-2.44.6-.14-2,0-.81,2.22-.55.71-.17-.06-.87V5.54l-.5.12-2.45.6-.18-2.69,2.08-.51,1.23-.31-.08-1.14-1.05.26-3.65.9.27,4.13.11,1.67.2,3.1,4.29-1.05.42-.11Z"/><path class="cls-1" d="M165.7,2.75l-1.23.31a5.86,5.86,0,0,1,.1-1.19l1.05-.26Z"/><path class="cls-1" d="M166.14,9.38l.07,1.13-.42.11a4.71,4.71,0,0,1-.51-1Z"/><path class="cls-1" d="M174.88,6.2a2.43,2.43,0,0,0-.27-.7,1.4,1.4,0,0,0-.3-.38,2.83,2.83,0,0,0-.95-.57c-.26-.09-.58-.18-1-.28L172,4.18c-.41-.09-.74-.16-1-.23a2.19,2.19,0,0,1-.65-.32.88.88,0,0,1-.33-.56,1.06,1.06,0,0,1,.24-1,1.81,1.81,0,0,1,1.08-.56,1.45,1.45,0,0,1,1.11.12,1,1,0,0,1,.48.78l1.49-.29A2.17,2.17,0,0,0,173.89,1a2.23,2.23,0,0,0-1.13-.62,3.79,3.79,0,0,0-1.57,0,4,4,0,0,0-1.52.63,2.61,2.61,0,0,0-.91,1.11,2.36,2.36,0,0,0-.13,1.42,2,2,0,0,0,.57,1.09,1.91,1.91,0,0,0,.33.25,1.78,1.78,0,0,0,.6.3,11.88,11.88,0,0,0,1.35.34,8.39,8.39,0,0,1,1,.22,1.42,1.42,0,0,1,.36.14,2.09,2.09,0,0,1,.28.17.93.93,0,0,1,.34.57,1.05,1.05,0,0,1-.25,1,2,2,0,0,1-1.13.57A1.61,1.61,0,0,1,170.88,8a1.17,1.17,0,0,1-.53-.88l-1.4.28c0,.15,0,.26,0,.32a2,2,0,0,0,.61,1.08,2.46,2.46,0,0,0,1.15.54,3.86,3.86,0,0,0,1.47,0,4,4,0,0,0,1.59-.66,2.57,2.57,0,0,0,.93-1.1A2.24,2.24,0,0,0,174.88,6.2Z"/><path class="cls-2" d="M254.33,55.61c5.58,7.75,13.09,22.24,10.22,39.15C245,60.67,172.64,73.24,104.81,112.07,28.58,155.7,3.61,122.9,3.61,122.9c5-5.56,3.79-48.17,3-66.73-.22-5.26-.4-8.58-.4-8.58A36,36,0,0,0,16.5,60.14l.18.13a29.39,29.39,0,0,0,17,5.43h.06c8.29.21,17.67-2.1,27.92-5.85l0,0c1.27-.46,2.55-.94,3.84-1.45C88.69,49.29,116,33.75,144.89,23.23l.58-.21.35-.13.34-.13L150,21.42l.44-.14a.11.11,0,0,1,.06,0l1.1-.37,1-.32,1-.32,2.06-.64,1-.29a182.45,182.45,0,0,1,17.85-4.56C196,10.19,225.16,7.4,247.54,18h0c26,11.3,32,33.23,32,33.23C259.92,44.56,254.33,55.61,254.33,55.61Z"/><path class="cls-3" d="M288.78,50.62l-.51-1.83c-.17-.62-3.51-12.29-14.72-23.78A68,68,0,0,0,263,16.19l-8.24-4.82c-1-.49-2-1-3.1-1.46l-.27-.13C240,4.38,226.07,1.64,210.16,1.64A175.51,175.51,0,0,0,178.73,4.7a6.49,6.49,0,0,0-.46-1.08,5.52,5.52,0,0,0,.16-.54A177.81,177.81,0,0,1,210.16,0c16.16,0,30.27,2.79,42,8.29l.25.13c1.07.47,2.15,1,3.2,1.5l8.33,4.88a67.61,67.61,0,0,1,6.63,5.1l.08.06a69.93,69.93,0,0,1,5.07,4.89C285,35.4,288.43,49.16,288.78,50.62Z"/><path class="cls-3" d="M63.21,49.56l-.37-1.62c-1.9.76-3.78,1.48-5.6,2.13l1.38,1.25Q60.87,50.5,63.21,49.56Z"/><path class="cls-4" d="M254.33,55.61c5.58,7.75,13.09,22.24,10.22,39.15C245,60.67,172.64,73.24,104.81,112.07,28.58,155.7,3.61,122.9,3.61,122.9c5-5.56,3.79-48.17,3-66.73-.22-5.26-.4-8.58-.4-8.58A36,36,0,0,0,16.5,60.14l.18.13a29.39,29.39,0,0,0,17,5.43h.06c8.29.21,17.67-2.1,27.92-5.85l0,0c1.27-.46,2.55-.94,3.84-1.45C88.69,49.29,116,33.75,144.89,23.23l.58-.21.35-.13.34-.13L150,21.42l.44-.14a.11.11,0,0,1,.06,0l1.1-.37,1-.32,1-.32,2.06-.64,1-.29a182.45,182.45,0,0,1,17.85-4.56C196,10.19,225.16,7.4,247.54,18h0c26,11.3,32,33.23,32,33.23C259.92,44.56,254.33,55.61,254.33,55.61Z"/><path class="cls-5" d="M68.45,117a20.49,20.49,0,0,1-2.36-.13,21,21,0,0,1-8.44-2.79,21.86,21.86,0,0,1-6.25-5.64,24.23,24.23,0,0,1-3.8-7.37,26.33,26.33,0,0,1-1.23-8.65,21,21,0,0,1,2.06-8.54A21.48,21.48,0,0,1,54,76.82a26,26,0,0,1,9.08-4.77l2.83-.9a10,10,0,0,1,2.95-.47,7.88,7.88,0,0,1,1.09.07,9,9,0,0,1,3.52,1.19,9.24,9.24,0,0,1,2.6,2.3,9.84,9.84,0,0,1,2,6.42,9,9,0,0,1-.85,3.49A9.21,9.21,0,0,1,76.1,86a9.78,9.78,0,0,1,1.43.51,8.66,8.66,0,0,1,4.82,5.62L85.77,103a8.91,8.91,0,0,1-.69,7.52,9.49,9.49,0,0,1-5.46,4.18L76,115.8A25.16,25.16,0,0,1,68.45,117Z"/><path class="cls-6" d="M68.45,115.4a17.32,17.32,0,0,1-2.17-.13,19.23,19.23,0,0,1-7.78-2.56,20.3,20.3,0,0,1-5.79-5.21,22.59,22.59,0,0,1-3.54-6.88A25,25,0,0,1,48,92.51a19.23,19.23,0,0,1,1.9-7.87,19.91,19.91,0,0,1,5.17-6.56,24.6,24.6,0,0,1,8.51-4.47l2.84-.89a8.23,8.23,0,0,1,2.45-.39,6.31,6.31,0,0,1,.88,0,7.44,7.44,0,0,1,2.89,1,7.81,7.81,0,0,1,3.46,4.42,8.15,8.15,0,0,1,.38,2.82,7.43,7.43,0,0,1-.7,2.85A7.61,7.61,0,0,1,74,85.83a7.86,7.86,0,0,1-2.94,1.63l-3.59,1.13A6.86,6.86,0,0,0,65,89.9a5.54,5.54,0,0,0-1.41,1.77,5,5,0,0,0-.51,2,6.58,6.58,0,0,0,.29,2.22,8.52,8.52,0,0,0,1,2.15,4.94,4.94,0,0,0,1.38,1.39,4.33,4.33,0,0,0,1.6.63l-.92-2.91a7.13,7.13,0,0,1,.57-6,7.66,7.66,0,0,1,4.34-3.4,8.26,8.26,0,0,1,2.43-.38,7.8,7.8,0,0,1,3.13.67,7.13,7.13,0,0,1,3.92,4.61l3.41,10.84a7.29,7.29,0,0,1-.53,6.18,7.87,7.87,0,0,1-4.54,3.46l-3.6,1.13A23.5,23.5,0,0,1,68.45,115.4Z"/><path class="cls-7" d="M81.84,104.2a4.89,4.89,0,0,1-.28,4.16,5.44,5.44,0,0,1-3.17,2.39l-3.6,1.13a19.75,19.75,0,0,1-8.22,1,16.82,16.82,0,0,1-6.8-2.24A17.67,17.67,0,0,1,54.68,106a20.4,20.4,0,0,1-3.16-6.13,22.24,22.24,0,0,1-1-7.3,16.77,16.77,0,0,1,1.65-6.87A17.45,17.45,0,0,1,56.68,80a21.77,21.77,0,0,1,7.65-4l2.84-.9a5.43,5.43,0,0,1,2.29-.24,5,5,0,0,1,1.93.64,5.45,5.45,0,0,1,2.37,3,5.74,5.74,0,0,1,.26,2,4.87,4.87,0,0,1-.46,1.9A5,5,0,0,1,72.34,84a5.46,5.46,0,0,1-2,1.11l-3.59,1.13A9.52,9.52,0,0,0,63.33,88a8.15,8.15,0,0,0-2,2.55,7.32,7.32,0,0,0-.76,3,8.92,8.92,0,0,0,.4,3,11,11,0,0,0,1.32,2.78,7.36,7.36,0,0,0,2.08,2.08,6.87,6.87,0,0,0,2.78,1.05,8.72,8.72,0,0,0,3.45-.26l-1.85-5.87a4.72,4.72,0,0,1,.33-4,5.44,5.44,0,0,1,6.79-2.13,4.68,4.68,0,0,1,2.56,3.09Z"/><path class="cls-5" d="M96.47,105.6a9.77,9.77,0,0,1-1.79-.16,8.93,8.93,0,0,1-3.4-1.37,8.32,8.32,0,0,1-2.72-3,8.43,8.43,0,0,1-1.15-3.81L85.33,67A10.56,10.56,0,0,1,86,62.45a8.73,8.73,0,0,1,4.23-4.35,9.35,9.35,0,0,1,4.47-1.26A7.53,7.53,0,0,1,96,57a9.75,9.75,0,0,1,4.34,2.1l23.24,18.79a8.6,8.6,0,0,1,2.4,2.92,8.22,8.22,0,0,1,1,3.88,9.17,9.17,0,0,1-.66,3.52,10.41,10.41,0,0,1-1.82,2.92,9.94,9.94,0,0,1-2.72,2.18,8.94,8.94,0,0,1-4.32,1.15,8.81,8.81,0,0,1-6-2.49L110.43,91l-4.75,2.56.19,1.63a9.89,9.89,0,0,1-1,5.52,8.55,8.55,0,0,1-3.54,3.65,10,10,0,0,1-3.27,1.11A9.74,9.74,0,0,1,96.47,105.6Z"/><path class="cls-6" d="M96.47,104a9.5,9.5,0,0,1-1.5-.13,7.42,7.42,0,0,1-2.78-1.13A6.71,6.71,0,0,1,90,100.28a6.88,6.88,0,0,1-1-3.07L87,66.87a8.83,8.83,0,0,1,.56-3.82A7.11,7.11,0,0,1,91,59.54a7.82,7.82,0,0,1,3.69-1,5.92,5.92,0,0,1,1,.09,8.12,8.12,0,0,1,3.61,1.76l23.25,18.79a7.25,7.25,0,0,1,2,2.44,6.54,6.54,0,0,1,.81,3.1,7.54,7.54,0,0,1-.54,2.9,8.64,8.64,0,0,1-3.8,4.27,7.37,7.37,0,0,1-3.53,1,7.2,7.2,0,0,1-4.91-2.07L110.66,89l-6.73,3.65.31,2.72a8.14,8.14,0,0,1-.8,4.58,6.82,6.82,0,0,1-2.86,3,8.46,8.46,0,0,1-2.75.94A8.91,8.91,0,0,1,96.47,104Z"/><path class="cls-7" d="M111,86l-9.71,5.26.5,4.38a5.76,5.76,0,0,1-.53,3.16,4.57,4.57,0,0,1-1.85,1.94,6.42,6.42,0,0,1-2,.67,6.07,6.07,0,0,1-2,0,4.76,4.76,0,0,1-1.85-.75,4.16,4.16,0,0,1-1.38-1.55,4.45,4.45,0,0,1-.66-2L89.43,66.7A6.45,6.45,0,0,1,89.82,64a4.83,4.83,0,0,1,2.35-2.24,4.73,4.73,0,0,1,3.09-.7,5.7,5.7,0,0,1,2.52,1.23L121.09,81.1a4.63,4.63,0,0,1,1.31,1.64,4.16,4.16,0,0,1,.52,2,5.16,5.16,0,0,1-.37,2,6.24,6.24,0,0,1-1.08,1.73,5.9,5.9,0,0,1-1.6,1.29,4.49,4.49,0,0,1-5.61-.77Zm-10.73-3.43,4.39-2.38-5.22-4.84Z"/><path class="cls-5" d="M137.91,85.24a7.12,7.12,0,0,1-2.22-.35,10.4,10.4,0,0,1-3.9-2.42L110.68,61.12a9.87,9.87,0,0,1-1.06-1.19A8.51,8.51,0,0,1,108,54.11a8.94,8.94,0,0,1,1.08-3.5,10.61,10.61,0,0,1,2-2.63,9.63,9.63,0,0,1,3-1.92,8.89,8.89,0,0,1,3.43-.68,9.21,9.21,0,0,1,1.56.13,8.54,8.54,0,0,1,5.14,2.93l5.76,6.5-.14-9a9.2,9.2,0,0,1,1.63-5.51,9,9,0,0,1,3.93-3.16,10.19,10.19,0,0,1,3.31-.76l.65,0a9.72,9.72,0,0,1,2.8.4,8.82,8.82,0,0,1,3.24,1.72,8.26,8.26,0,0,1,2.39,3.28A8.63,8.63,0,0,1,148.4,44a7.58,7.58,0,0,1,0,1.85c-.85,30.31-.86,30.33-.86,30.38a10.7,10.7,0,0,1-1.27,4.43,8.94,8.94,0,0,1-4.6,3.79A9.9,9.9,0,0,1,137.91,85.24Z"/><path class="cls-6" d="M137.91,83.6a5.31,5.31,0,0,1-1.7-.27,8.81,8.81,0,0,1-3.29-2L111.85,60a7.76,7.76,0,0,1-.91-1,6.23,6.23,0,0,1-.85-1.5,6.54,6.54,0,0,1-.49-3.17,7.4,7.4,0,0,1,.89-2.87,8.81,8.81,0,0,1,1.73-2.22,8.21,8.21,0,0,1,2.5-1.6,7.17,7.17,0,0,1,2.8-.55,8.35,8.35,0,0,1,1.31.1A7,7,0,0,1,123,49.52l8.71,9.83-.21-13.45a7.53,7.53,0,0,1,1.32-4.53A7.35,7.35,0,0,1,136,38.78a8.55,8.55,0,0,1,2.78-.64h.55a8.32,8.32,0,0,1,2.34.33,7.28,7.28,0,0,1,2.65,1.4,6.66,6.66,0,0,1,1.92,2.64,7.69,7.69,0,0,1,.51,1.7,6.88,6.88,0,0,1,0,1.51s-.86,30.33-.86,30.36a9,9,0,0,1-1.07,3.75,7.29,7.29,0,0,1-3.79,3.07A8.21,8.21,0,0,1,137.91,83.6Z"/><path class="cls-7" d="M134.26,66,134,45.86a5,5,0,0,1,.87-3A4.89,4.89,0,0,1,137,41.06a6.22,6.22,0,0,1,2-.46,6.07,6.07,0,0,1,2,.22,5,5,0,0,1,1.77.94A4.43,4.43,0,0,1,144,43.44a5.65,5.65,0,0,1,.35,1.12,4,4,0,0,1,0,1l-.86,30.36a6.52,6.52,0,0,1-.77,2.73,5,5,0,0,1-2.57,2A4.61,4.61,0,0,1,137,81a6.39,6.39,0,0,1-2.37-1.49l-21-21.27a6.4,6.4,0,0,1-.7-.77,4.41,4.41,0,0,1-.53-1,4.07,4.07,0,0,1-.31-2,4.78,4.78,0,0,1,.59-1.91A6.69,6.69,0,0,1,113.91,51a5.63,5.63,0,0,1,1.75-1.12,5,5,0,0,1,2.78-.29,4.53,4.53,0,0,1,2.7,1.59Z"/><path class="cls-5" d="M160.1,76.67c-.27,0-.53,0-.79,0a10.2,10.2,0,0,1-3.31-.83,8.94,8.94,0,0,1-3-2.13,9.18,9.18,0,0,1-2.17-7.53l5-29.92a10.42,10.42,0,0,1,1.7-4.25,8.68,8.68,0,0,1,5.11-3.25,10.88,10.88,0,0,1,2.78-.39,7.59,7.59,0,0,1,3.15.65A9.81,9.81,0,0,1,172.36,32l18.21,23.69a8.55,8.55,0,0,1,1.65,3.41,8.25,8.25,0,0,1,.08,4,9.08,9.08,0,0,1-1.47,3.26,10,10,0,0,1-8.1,4.25,8.65,8.65,0,0,1-7.24-4.06l-.81-1.17-5.21,1.4-.2,1.62A9.93,9.93,0,0,1,167,73.59a8.57,8.57,0,0,1-4.29,2.73A10.43,10.43,0,0,1,160.1,76.67Z"/><path class="cls-6" d="M160.1,75l-.66,0a8.8,8.8,0,0,1-2.78-.69,7.44,7.44,0,0,1-2.45-1.75,6.64,6.64,0,0,1-1.55-2.86,6.88,6.88,0,0,1-.22-3.21l5.06-30a8.7,8.7,0,0,1,1.42-3.58,7.18,7.18,0,0,1,4.2-2.6,9.26,9.26,0,0,1,2.35-.34,5.87,5.87,0,0,1,2.47.51A8.16,8.16,0,0,1,171.05,33l18.22,23.7a7.12,7.12,0,0,1,1.36,2.83,6.63,6.63,0,0,1,.07,3.22,7.56,7.56,0,0,1-1.21,2.68,8.7,8.7,0,0,1-4.68,3.27,8.05,8.05,0,0,1-2.08.28,6.92,6.92,0,0,1-5.88-3.34l-1.48-2.12-7.4,2-.33,2.73a8.21,8.21,0,0,1-1.84,4.26,6.93,6.93,0,0,1-3.47,2.22A9,9,0,0,1,160.1,75Z"/><path class="cls-7" d="M176.4,60.72l-10.67,2.85L165.19,68a5.66,5.66,0,0,1-1.25,2.94,4.48,4.48,0,0,1-2.25,1.46,6.25,6.25,0,0,1-2.06.19,6.06,6.06,0,0,1-2-.49A4.91,4.91,0,0,1,156,70.89a4.26,4.26,0,0,1-1-1.83,4.35,4.35,0,0,1-.17-2.1l5.06-30a6.19,6.19,0,0,1,1-2.58,6.05,6.05,0,0,1,6-1.6,5.66,5.66,0,0,1,2.15,1.79l18.27,23.77a4.72,4.72,0,0,1,.9,1.91,4.07,4.07,0,0,1,0,2,4.94,4.94,0,0,1-.81,1.81A6,6,0,0,1,186,65.46a5.65,5.65,0,0,1-1.86.88,4.49,4.49,0,0,1-5.28-2Zm-9.64-5.84,4.83-1.29-4-5.93Z"/><path class="cls-5" d="M202.73,67.59c-5.37,0-8.73-3.32-9-8.88l-1.31-27.22a8.77,8.77,0,0,1,2.58-7,9.23,9.23,0,0,1,6.18-2.65l.49,0a9.4,9.4,0,0,1,5.9,2,8.75,8.75,0,0,1,3.3,6.74l.87,18,1.36-.07h.54a8.38,8.38,0,0,1,6.4,2.69,9.58,9.58,0,0,1,2.49,6.14,9.69,9.69,0,0,1-1.86,6.35A8.42,8.42,0,0,1,214,67.06l-10.61.51Z"/><path class="cls-6" d="M202.73,65.94c-4.45,0-7.13-2.66-7.36-7.31l-1.31-27.22a7.15,7.15,0,0,1,2.08-5.73,7.66,7.66,0,0,1,5.11-2.19h.42a7.74,7.74,0,0,1,4.89,1.68,7.12,7.12,0,0,1,2.67,5.52l.94,19.61,3-.14.46,0a6.81,6.81,0,0,1,5.19,2.16,8,8,0,0,1,2.06,5.11,8.12,8.12,0,0,1-1.55,5.3,6.8,6.8,0,0,1-5.43,2.72l-10.61.51Z"/><path class="cls-7" d="M203.18,63.47q-5.1.24-5.35-5l-1.31-27.22a4.79,4.79,0,0,1,1.33-3.84,5.3,5.3,0,0,1,3.52-1.5,5.44,5.44,0,0,1,3.68,1.15,4.76,4.76,0,0,1,1.72,3.7l1.06,22.07,5.46-.26A4.43,4.43,0,0,1,217,54a5.52,5.52,0,0,1,1.42,3.57,5.62,5.62,0,0,1-1.07,3.72A4.41,4.41,0,0,1,213.79,63Z"/><path class="cls-5" d="M36.32,131.44h0c-15.89,0-24.51-5.44-28.24-8.68l-.42-.36.18-.52c2.69-7.91,3.46-28.44,2.29-61l-.08-2,1.47,1.39a31.81,31.81,0,0,0,3,2.57l.18.13A32.88,32.88,0,0,0,33.6,69h1.22c7.79,0,16.69-1.92,28-6.06l.13-.06c1.31-.48,2.59-1,3.82-1.45,10.19-4,21.08-9.19,32.62-14.69,15-7.15,30.47-14.53,46.64-20.42l.59-.22L147,26l.29-.1c1.25-.45,2.52-.89,3.79-1.33l1.57-.52.94-.31,1-.31,2.06-.64.89-.27A175.86,175.86,0,0,1,175.1,18a170.42,170.42,0,0,1,35.06-4c14,0,26,2.3,35.71,6.84l.35.18c15,6.52,23,16.59,27,23.89l.8,1.43-1.63-.22a32.3,32.3,0,0,0-4.3-.3c-12.34,0-16.53,8-16.7,8.33a3.3,3.3,0,0,0,.27,3.41c4.11,5.7,9.19,14.88,10.1,26.18l.17,2.08-1.54-1.41c-9.25-8.44-23-12.72-41-12.72-32.13,0-74.47,13.68-116.17,37.55C77.41,124,54.92,131.44,36.32,131.44ZM9.56,121.87c3.76,3.12,12,7.93,26.75,7.93h0c18.31,0,40.53-7.41,66-22,41.94-24,84.58-37.78,117-37.78,17.42,0,31.05,4,40.56,11.78a51.93,51.93,0,0,0-9.59-23.3,4.91,4.91,0,0,1-.39-5.11c.19-.38,4.82-9.24,18.16-9.24.93,0,1.9,0,2.89.14-4.14-6.93-11.79-15.86-25.41-21.79a3.74,3.74,0,0,1-.45-.22c-9.47-4.4-21.25-6.65-35-6.65a168.66,168.66,0,0,0-34.73,4A175.56,175.56,0,0,0,158,24.05l-.9.27-2,.64-1,.31-.92.3-1.08.36-.49.16c-1.25.43-2.51.87-3.76,1.32l-.26.09-.41.15-.58.22c-16.11,5.85-31.56,13.22-46.5,20.35C88.52,53.74,77.6,58.94,67.35,63c-1.24.5-2.53,1-3.82,1.46l-.15.06c-11.5,4.21-20.57,6.17-28.56,6.17l-1.15,0h-.12a34.37,34.37,0,0,1-19.78-6.38l-.19-.13c-.59-.44-1.18-.91-1.75-1.4C12.88,93.71,12.12,113.59,9.56,121.87Z"/><path class="cls-8" d="M150,21.42l-3.84,1.34C147,22.44,148.33,22,150,21.42Z"/><path class="cls-9" d="M61.7,59.83l0,0c-.77.37-14,6.54-27.92,5.85h-.06a32.18,32.18,0,0,1-17-5.43l-.18-.13A31.71,31.71,0,0,1,6.25,47.59s0-.48-.1-1.3c0-.47,0-1,0-1.68,0-8.68,3.72-30.91,46.66,7,.47.41.94.84,1.42,1.27C56.57,55,59.08,57.32,61.7,59.83Z"/><path class="cls-3" d="M261.07,99.88c-.09-.1-.77-.88-1.78-2-2.06-2.25-5.51-5.82-8-7.43l3.26,1.65a40.45,40.45,0,0,1,3.9,4.14A33.81,33.81,0,0,1,261,99.7a.56.56,0,0,1,.07.13l0,0Z"/><path class="cls-10" d="M223.58,92.85l.77.18q-3.33-.42-6.46-.52c-60.81-2.2-66.57,76.26-125,40,4.94-2.42,13.19-6.28,18.31-9.2,1.17-.67,2.33-1.33,3.5-2,36.09,17.24,50.07-40.62,104.69-30.06q2.59.49,5.32,1.21A6.14,6.14,0,0,0,223.58,92.85Z"/><path class="cls-2" d="M226.86,88.94c.46,0,.87,0,1.19,0C227.64,88.93,227.24,88.93,226.86,88.94Z"/><path class="cls-11" d="M238.51,96.47c-3-5.12-6.57-7-9.62-7.42h-.17l-.38,0a2.58,2.58,0,0,0-.29,0c-.32,0-.73,0-1.19,0h-.19a13.84,13.84,0,0,0-7.42,2.44,6.61,6.61,0,0,0-1.36,1.12c-4.08,4.47,1.06,12.52,10,13,10.67.52,18.84,7.25,19.1,7.46C247,112.78,245.42,108.11,238.51,96.47ZM224.35,93l-.77-.18a6.14,6.14,0,0,1,1.17-.37c2.75-.61,9.9-.61,15.73,13C240.19,105.09,231.18,94.9,224.35,93Z"/><path class="cls-12" d="M228.34,89l.38,0Z"/></g></g></svg>