<svg xmlns="http://www.w3.org/2000/svg" xmlns:xlink="http://www.w3.org/1999/xlink" viewBox="0 0 202.38 110.33"><defs><style>.cls-1{fill:#f3ffff;}.cls-2{fill:#ed1b26;}.cls-3{fill:#fff;}.cls-4{fill:url(#Degradado_sin_nombre_9);}.cls-5{fill:#ffb998;}.cls-6{fill:#4f160b;}.cls-7{fill:#f8fcff;}.cls-8{fill:#c51015;}.cls-9{fill:#710c10;}.cls-10{fill:url(#Degradado_sin_nombre_9-2);}</style><linearGradient id="Degradado_sin_nombre_9" x1="-1.04" y1="66.6" x2="195" y2="30.84" gradientUnits="userSpaceOnUse"><stop offset="0" stop-color="#a60c16"/><stop offset="0.12" stop-color="#b50f19"/><stop offset="0.36" stop-color="#dc1722"/><stop offset="0.46" stop-color="#ed1b26"/><stop offset="0.56" stop-color="#e81a25"/><stop offset="0.68" stop-color="#d81821"/><stop offset="0.82" stop-color="#be151b"/><stop offset="0.97" stop-color="#9a1112"/><stop offset="1" stop-color="#921010"/></linearGradient><linearGradient id="Degradado_sin_nombre_9-2" x1="160.02" y1="62.38" x2="160.29" y2="62.38" xlink:href="#Degradado_sin_nombre_9"/></defs><g id="Capa_2" data-name="Capa 2"><g id="Capa_1-2" data-name="Capa 1"><path class="cls-1" d="M181.72,68.61a36.2,36.2,0,0,0-5.61-5.21,21.46,21.46,0,0,0-2.8-1.79,29.15,29.15,0,0,0-6.55-2.53,52,52,0,0,0-13-1.52c-20.87,0-49.78,9.39-77.4,25.15l-.37.2q-6.4,3.68-12.48,6.53a129.7,129.7,0,0,1-14.59,5.87,75.94,75.94,0,0,1-23.44,4.16,47.21,47.21,0,0,1-9.39-.9C4.38,96,.25,90,0,89.57a23,23,0,0,0,1.83,1.68l0,0A29.44,29.44,0,0,0,7.82,95,40.91,40.91,0,0,0,25.45,98.6c10.9,0,23.37-3.27,37.22-9.74l12.86-6.7c27.86-15.94,57.09-25.46,78.2-25.46a60.32,60.32,0,0,1,8.3.55h0a38.39,38.39,0,0,1,8.44,2.12h0a27.8,27.8,0,0,1,5.7,3.34c.8.61,1.52,1.22,2.17,1.82a27.93,27.93,0,0,1,2.74,2.91,12,12,0,0,1,.65,1l0,.05Z"/><path class="cls-1" d="M181.81,68.54l-.09.07a36.2,36.2,0,0,0-5.61-5.21,21.46,21.46,0,0,0-2.8-1.79,29.15,29.15,0,0,0-6.55-2.53,52,52,0,0,0-13-1.52c-20.87,0-49.78,9.39-77.4,25.15l-.37.2q-6.4,3.68-12.48,6.53a129.7,129.7,0,0,1-14.59,5.87,75.94,75.94,0,0,1-23.44,4.16,47.21,47.21,0,0,1-9.39-.9C4.38,96,.25,90,0,89.57a23,23,0,0,0,1.83,1.68l0,0A29.44,29.44,0,0,0,7.82,95,40.91,40.91,0,0,0,25.45,98.6c10.9,0,23.37-3.27,37.22-9.74l12.86-6.7c27.86-15.94,57.09-25.46,78.2-25.46a60.32,60.32,0,0,1,8.3.55h0a38.39,38.39,0,0,1,8.44,2.12h0a27.8,27.8,0,0,1,5.7,3.34c.8.61,1.52,1.22,2.17,1.82a27.93,27.93,0,0,1,2.74,2.91,12,12,0,0,1,.65,1Z"/><path class="cls-1" d="M181.81,68.54l-.09.07a36.2,36.2,0,0,0-5.61-5.21,21.46,21.46,0,0,0-2.8-1.79,29.15,29.15,0,0,0-6.55-2.53,52,52,0,0,0-13-1.52c-20.87,0-49.78,9.39-77.4,25.15l-.37.2q-6.4,3.68-12.48,6.53a129.7,129.7,0,0,1-14.59,5.87,75.94,75.94,0,0,1-23.44,4.16,47.21,47.21,0,0,1-9.39-.9C4.38,96,.25,90,0,89.57a23,23,0,0,0,1.83,1.68l0,0A29.44,29.44,0,0,0,7.82,95,40.91,40.91,0,0,0,25.45,98.6c10.9,0,23.37-3.27,37.22-9.74q6.24-2.91,12.86-6.7c27.86-15.94,57.09-25.46,78.2-25.46a60.32,60.32,0,0,1,8.3.55h0a38.39,38.39,0,0,1,8.44,2.12h0a27.8,27.8,0,0,1,5.7,3.34c.8.61,1.52,1.22,2.17,1.82a27.93,27.93,0,0,1,2.74,2.91,12,12,0,0,1,.65,1Z"/><path class="cls-1" d="M51.62,30.55a.49.49,0,0,0,0-.16,2.32,2.32,0,0,0-.15-.47,2.56,2.56,0,0,0-.81-1.07,2.19,2.19,0,0,0-1.21-.4,3.66,3.66,0,0,0-1.49.31l-1.85.78.67,3L47,33.63l.46,2,1.85-.78a4.2,4.2,0,0,0,1.5-1,3.35,3.35,0,0,0,.81-1.49,3,3,0,0,0,.1-.74A4.09,4.09,0,0,0,51.62,30.55Zm-1.1,2.28a2.48,2.48,0,0,1-1.38,1.25l-.92.4-.29-1.24-.26-1.14L47.18,30l.92-.39a2,2,0,0,1,1.46-.14,1.64,1.64,0,0,1,.93,1,3.73,3.73,0,0,1,.14.4.66.66,0,0,1,0,.15A3,3,0,0,1,50.74,32,2.21,2.21,0,0,1,50.52,32.83Z"/><path class="cls-1" d="M54.6,31.08l-.18-.71-.29-1.14L54,28.56l-.56-2.22-.84.38-.08,0,.73,2.89.29,1.14.52,2,.49-.22.42-.19Z"/><path class="cls-1" d="M58,30.87a1.79,1.79,0,0,1-.87-.18,1.32,1.32,0,0,1-.59-.64s0-.11-.08-.21l.91-.42a.77.77,0,0,0,.5.51,1,1,0,0,0,.83-.09,1.4,1.4,0,0,0,.68-.56.74.74,0,0,0,0-.72.59.59,0,0,0-.33-.33,1.21,1.21,0,0,0-.48-.12h-.71a7.74,7.74,0,0,1-1,0,1.83,1.83,0,0,1-.73-.23,1.4,1.4,0,0,1-.56-.65,1.73,1.73,0,0,1-.15-1,1.83,1.83,0,0,1,.45-.9,2.74,2.74,0,0,1,.93-.68,2.64,2.64,0,0,1,1.07-.27,1.58,1.58,0,0,1,.87.24,1.49,1.49,0,0,1,.56.71l-1,.45a.73.73,0,0,0-.46-.46,1.07,1.07,0,0,0-.78.1,1.31,1.31,0,0,0-.64.55.77.77,0,0,0,0,.71.66.66,0,0,0,.32.32,1.3,1.3,0,0,0,.49.11c.18,0,.42,0,.71,0a7.26,7.26,0,0,1,1,0,1.87,1.87,0,0,1,.74.23,1.42,1.42,0,0,1,.56.64,1.51,1.51,0,0,1,.13.95,1.84,1.84,0,0,1-.46.91,2.89,2.89,0,0,1-1,.7A2.72,2.72,0,0,1,58,30.87Z"/><path class="cls-1" d="M64.48,21.14l.21.77-1.48.71,1.45,5.24-.91.44L62.3,23.05l-1.49.71L60.6,23Z"/><path class="cls-1" d="M69.55,19.18a1.35,1.35,0,0,1,.9.77q0,.11.12.33a2.27,2.27,0,0,1,0,1.21,2.17,2.17,0,0,1-.78,1.12l2.06,1.84L70.73,25l-1.93-1.8-.71.33.67,2.41-.91.43-1.66-6,1.91-.91A2.09,2.09,0,0,1,69.55,19.18Zm0,1.3a.71.71,0,0,0-.47-.43,1.14,1.14,0,0,0-.75.13l-1,.48.57,2.06,1-.48a1.34,1.34,0,0,0,.7-.64,1.2,1.2,0,0,0,0-.88A.85.85,0,0,0,69.54,20.48Z"/><path class="cls-1" d="M73,17.1l1.63,6-.91.43-1.63-6Z"/><path class="cls-1" d="M79.35,16.87a2.16,2.16,0,0,1-.55.83,1,1,0,0,1,.78.1,1.24,1.24,0,0,1,.58.63,1.14,1.14,0,0,1,.09.26,1.83,1.83,0,0,1,0,.93,2.1,2.1,0,0,1-.49.88,2.71,2.71,0,0,1-.91.66l-2.24,1-1.58-6,2.13-1a2,2,0,0,1,1.32-.2,1.14,1.14,0,0,1,.8.66,1.71,1.71,0,0,1,.09.27A1.56,1.56,0,0,1,79.35,16.87Zm-.94-.61a.63.63,0,0,0-.44-.39,1,1,0,0,0-.69.11l-1.13.52.47,1.79,1.13-.53a1.33,1.33,0,0,0,.65-.55,1.07,1.07,0,0,0,.08-.77C78.45,16.36,78.43,16.3,78.41,16.26Zm.83,2.55a.7.7,0,0,0-.48-.41,1.08,1.08,0,0,0-.73.11l-1.21.55L77.33,21l1.24-.57a1.33,1.33,0,0,0,.66-.59,1.1,1.1,0,0,0,.08-.82A2,2,0,0,0,79.24,18.81Z"/><path class="cls-1" d="M81.9,13l.94,3.85a2.06,2.06,0,0,0,.12.35,1,1,0,0,0,.59.59,1.29,1.29,0,0,0,.9-.11,1.54,1.54,0,0,0,.94-1.95l-.93-3.85.92-.4.94,3.85a2.69,2.69,0,0,1,0,1.38,2.59,2.59,0,0,1-.61,1.13,3.17,3.17,0,0,1-1,.74,2.23,2.23,0,0,1-1.52.16,1.61,1.61,0,0,1-1-1,2.39,2.39,0,0,1-.17-.49L81,13.43Z"/><path class="cls-1" d="M87.91,12a3.79,3.79,0,0,1,.81-1.55,3.63,3.63,0,0,1,1.38-1,2.83,2.83,0,0,1,1.72-.19,2.17,2.17,0,0,1,1.33.94L92,10.67a1.29,1.29,0,0,0-.77-.44,1.73,1.73,0,0,0-1,.14,2.34,2.34,0,0,0-1,.68,2.53,2.53,0,0,0-.53,1.06,2.82,2.82,0,0,0,0,1.26,2.69,2.69,0,0,0,.14.47,1.66,1.66,0,0,0,.93,1,1.72,1.72,0,0,0,1.35,0,2.25,2.25,0,0,0,.86-.61,2.09,2.09,0,0,0,.47-.94l1.12-.46A3.54,3.54,0,0,1,93,14.56a3.7,3.7,0,0,1-1.51,1.13,2.82,2.82,0,0,1-1.38.22,2.29,2.29,0,0,1-1.21-.47,2.62,2.62,0,0,1-.81-1.1,4.39,4.39,0,0,1-.18-.58A3.61,3.61,0,0,1,87.91,12Z"/><path class="cls-1" d="M95.75,7.33l1.17,6.14-.94.36L94.81,7.69Z"/><path class="cls-1" d="M100.21,11.93A2.24,2.24,0,0,1,99,11.35a2.66,2.66,0,0,1-.73-1.17,3.76,3.76,0,0,1-.16-1.95A3.47,3.47,0,0,1,99,6.56a3.74,3.74,0,0,1,1.62-1A2.92,2.92,0,0,1,102,5.39a2.25,2.25,0,0,1,1.16.58,2.69,2.69,0,0,1,.73,1.17,3.73,3.73,0,0,1,.15,2,3.37,3.37,0,0,1-.82,1.67,3.71,3.71,0,0,1-1.63,1.05A2.73,2.73,0,0,1,100.21,11.93Zm2.35-1.79a2.52,2.52,0,0,0,.52-1.22,3,3,0,0,0-.14-1.39,1.72,1.72,0,0,0-.83-1.06,1.69,1.69,0,0,0-1.35,0,2.38,2.38,0,0,0-1.11.76,2.48,2.48,0,0,0-.51,1.21,2.9,2.9,0,0,0,.14,1.39,1.72,1.72,0,0,0,.83,1.06,1.65,1.65,0,0,0,1.35.05A2.33,2.33,0,0,0,102.56,10.14Z"/><path class="cls-1" d="M111.08,8.78l-1,.28-3.39-3.81.48,4.64-1,.27-.64-6.22,1-.27,3.4,3.8-.48-4.63,1-.28Z"/><path class="cls-1" d="M116.43,6.57l-.6.15-1.71.42L114,5.74l0-.56,1.56-.39.5-.12,0-.61V3.88l-.35.09-1.72.42-.12-1.89,1.46-.36.85-.21-.05-.8-.74.18-2.55.63L113,4.83,113,6l.15,2.18,3-.74.3-.07Z"/><path class="cls-1" d="M116.12,1.93l-.85.21a3.82,3.82,0,0,1,.06-.83l.74-.18Z"/><path class="cls-1" d="M116.43,6.57l.06.8-.3.07a3,3,0,0,1-.36-.72Z"/><path class="cls-1" d="M122.56,4.34a1.52,1.52,0,0,0-.19-.49,1.09,1.09,0,0,0-.21-.26,1.71,1.71,0,0,0-.67-.4L120.83,3l-.29-.07c-.29-.06-.52-.11-.69-.16a1.59,1.59,0,0,1-.45-.23.61.61,0,0,1-.23-.39.73.73,0,0,1,.17-.68,1.21,1.21,0,0,1,.75-.39,1,1,0,0,1,.78.08.73.73,0,0,1,.34.55l1-.21a1.49,1.49,0,0,0-.38-.82,1.56,1.56,0,0,0-.8-.43,2.55,2.55,0,0,0-1.1,0,2.89,2.89,0,0,0-1.06.44,1.83,1.83,0,0,0-.64.78,1.69,1.69,0,0,0-.09,1,1.43,1.43,0,0,0,.4.76,2,2,0,0,0,.23.18,1.35,1.35,0,0,0,.42.2,8.36,8.36,0,0,0,.94.24,4.37,4.37,0,0,1,.7.16,1,1,0,0,1,.24.09,1.32,1.32,0,0,1,.2.12.64.64,0,0,1,.24.4.75.75,0,0,1-.17.7,1.47,1.47,0,0,1-.8.4,1.12,1.12,0,0,1-.83-.11.86.86,0,0,1-.37-.62l-1,.2c0,.11,0,.18,0,.22a1.37,1.37,0,0,0,.43.76,1.69,1.69,0,0,0,.81.38,2.78,2.78,0,0,0,1,0,2.86,2.86,0,0,0,1.11-.46,1.77,1.77,0,0,0,.65-.77A1.64,1.64,0,0,0,122.56,4.34Z"/><path class="cls-2" d="M178.24,39c3.91,5.43,9.17,15.59,7.16,27.44C171.7,42.52,121,51.33,73.46,78.54,20,109.12,2.53,86.13,2.53,86.13,6,82.24,5.18,52.37,4.66,39.37c-.15-3.69-.28-6-.28-6a25.29,25.29,0,0,0,7.19,8.8l.12.09A20.6,20.6,0,0,0,23.61,46h0c5.81.15,12.39-1.46,19.57-4.1h0c.89-.32,1.79-.66,2.69-1,16.23-6.36,35.33-17.25,55.61-24.63l.41-.15.24-.09.24-.09,2.69-.94.31-.1h0l.77-.26.69-.23.71-.22,1.45-.45.67-.2a125.31,125.31,0,0,1,12.51-3.19c15.08-3.21,35.53-5.16,51.21,2.24h0c18.19,7.92,22.44,23.29,22.44,23.29C182.16,31.23,178.24,39,178.24,39Z"/><path class="cls-3" d="M202.38,35.48,202,34.19a42.54,42.54,0,0,0-10.32-16.66,47.76,47.76,0,0,0-7.39-6.19L178.55,8c-.69-.34-1.42-.69-2.17-1l-.19-.09c-8-3.79-17.75-5.71-28.91-5.71a122.34,122.34,0,0,0-22,2.15,4.36,4.36,0,0,0-.33-.77,2.29,2.29,0,0,0,.12-.37A124.45,124.45,0,0,1,147.28,0c11.33,0,21.22,2,29.4,5.81l.18.09c.75.33,1.5.69,2.24,1l5.84,3.42A49,49,0,0,1,189.59,14l0,0a46.64,46.64,0,0,1,3.55,3.43C199.71,24.81,202.14,34.45,202.38,35.48Z"/><path class="cls-3" d="M44.3,34.74,44,33.59c-1.33.54-2.65,1-3.93,1.5l1,.88C42.14,35.58,43.21,35.17,44.3,34.74Z"/><path class="cls-4" d="M178.24,39c3.91,5.43,9.17,15.59,7.16,27.44C171.7,42.52,121,51.33,73.46,78.54,20,109.12,2.53,86.13,2.53,86.13,6,82.24,5.18,52.37,4.66,39.37c-.15-3.69-.28-6-.28-6a25.29,25.29,0,0,0,7.19,8.8l.12.09A20.6,20.6,0,0,0,23.61,46h0c5.81.15,12.39-1.46,19.57-4.1h0c.89-.32,1.79-.66,2.69-1,16.23-6.36,35.33-17.25,55.61-24.63l.41-.15.24-.09.24-.09,2.69-.94.31-.1h0l.77-.26.69-.23.71-.22,1.45-.45.67-.2a125.31,125.31,0,0,1,12.51-3.19c15.08-3.21,35.53-5.16,51.21,2.24h0c18.19,7.92,22.44,23.29,22.44,23.29C182.16,31.23,178.24,39,178.24,39Z"/><path class="cls-5" d="M48,82a15.07,15.07,0,0,1-1.65-.1,14.7,14.7,0,0,1-5.91-2A15.49,15.49,0,0,1,36,76a17,17,0,0,1-2.66-5.17,18.33,18.33,0,0,1-.86-6.06,14.66,14.66,0,0,1,1.44-6,15.2,15.2,0,0,1,3.92-5,18.11,18.11,0,0,1,6.36-3.35l2-.62a6.9,6.9,0,0,1,2.07-.34,6.16,6.16,0,0,1,.75,0,6.47,6.47,0,0,1,2.47.84A6.55,6.55,0,0,1,53.33,52a6.87,6.87,0,0,1,1.42,4.5A6.17,6.17,0,0,1,54.16,59a6.37,6.37,0,0,1-.83,1.3,7.42,7.42,0,0,1,1,.35,6.15,6.15,0,0,1,3.39,3.94l2.39,7.6a6.24,6.24,0,0,1-.49,5.28,6.62,6.62,0,0,1-3.82,2.92l-2.52.8A18,18,0,0,1,48,82Z"/><path class="cls-6" d="M48,80.87c-.51,0-1,0-1.52-.08A13.61,13.61,0,0,1,41,79a14.31,14.31,0,0,1-4.06-3.65,15.92,15.92,0,0,1-2.48-4.83,17.4,17.4,0,0,1-.81-5.68A13.42,13.42,0,0,1,35,59.31a14.1,14.1,0,0,1,3.62-4.59,17.1,17.1,0,0,1,6-3.13l2-.63a5.93,5.93,0,0,1,1.73-.27,4.17,4.17,0,0,1,.61,0,5.09,5.09,0,0,1,2,.68,5.34,5.34,0,0,1,1.51,1.33,5.59,5.59,0,0,1,.92,1.76,5.77,5.77,0,0,1,.26,2,5.2,5.2,0,0,1-.48,2,5.45,5.45,0,0,1-1.26,1.67,5.36,5.36,0,0,1-2.06,1.14l-2.52.8a4.93,4.93,0,0,0-1.76.91,3.93,3.93,0,0,0-1,1.24,3.3,3.3,0,0,0-.35,1.41,4.24,4.24,0,0,0,.2,1.55,5.82,5.82,0,0,0,.71,1.51,3.45,3.45,0,0,0,1,1,3,3,0,0,0,1.12.45l-.64-2a5,5,0,0,1,.4-4.22,5.31,5.31,0,0,1,3-2.38,5.59,5.59,0,0,1,1.7-.27,5.43,5.43,0,0,1,2.19.47,5,5,0,0,1,2.75,3.23L59,72.51a5.13,5.13,0,0,1-.37,4.33,5.51,5.51,0,0,1-3.18,2.42l-2.53.8A16.62,16.62,0,0,1,48,80.87Z"/><path class="cls-7" d="M57.36,73a3.4,3.4,0,0,1-.2,2.91,3.9,3.9,0,0,1-2.22,1.68l-2.52.79a13.79,13.79,0,0,1-5.77.66,11.89,11.89,0,0,1-4.76-1.56,12.45,12.45,0,0,1-3.57-3.21A14.27,14.27,0,0,1,36.11,70a15.37,15.37,0,0,1-.73-5.12,11.71,11.71,0,0,1,1.16-4.82,12.1,12.1,0,0,1,3.18-4,15.26,15.26,0,0,1,5.36-2.8l2-.63a3.8,3.8,0,0,1,1.61-.17,3.37,3.37,0,0,1,1.35.45,3.55,3.55,0,0,1,1,.91A3.75,3.75,0,0,1,51.69,55a3.87,3.87,0,0,1,.19,1.39,3.34,3.34,0,0,1-.33,1.33,3.62,3.62,0,0,1-.85,1.13,3.81,3.81,0,0,1-1.42.78l-2.52.79a6.49,6.49,0,0,0-2.37,1.25A5.53,5.53,0,0,0,43,63.48a5.09,5.09,0,0,0-.53,2.1,6.15,6.15,0,0,0,.28,2.14,7.31,7.31,0,0,0,.93,2,5,5,0,0,0,1.45,1.46,4.88,4.88,0,0,0,2,.73,6.05,6.05,0,0,0,2.42-.18l-1.3-4.12a3.32,3.32,0,0,1,.23-2.8,3.62,3.62,0,0,1,2.09-1.63,3.67,3.67,0,0,1,2.67.13A3.3,3.3,0,0,1,55,65.43Z"/><path class="cls-5" d="M67.61,74a7.66,7.66,0,0,1-1.26-.11,6.27,6.27,0,0,1-2.38-1,5.7,5.7,0,0,1-1.9-2.11,5.82,5.82,0,0,1-.81-2.67L59.8,46.94a7.41,7.41,0,0,1,.47-3.18,6.08,6.08,0,0,1,2.95-3,6.57,6.57,0,0,1,3.14-.88,5,5,0,0,1,1,.09,6.81,6.81,0,0,1,3,1.46L86.64,54.56a6.25,6.25,0,0,1,1.68,2,5.71,5.71,0,0,1,.7,2.72,6.34,6.34,0,0,1-.46,2.47,7,7,0,0,1-1.27,2,7,7,0,0,1-1.91,1.53,6.28,6.28,0,0,1-3,.81,6.15,6.15,0,0,1-4.22-1.75l-.75-.66-3.32,1.8.13,1.14a7,7,0,0,1-.68,3.87A6,6,0,0,1,71,73.14a7.23,7.23,0,0,1-2.29.78A7.3,7.3,0,0,1,67.61,74Z"/><path class="cls-6" d="M67.61,72.86a5.33,5.33,0,0,1-1-.1,5.1,5.1,0,0,1-2-.78,5.31,5.31,0,0,1-2.2-3.86L61,46.86a6.13,6.13,0,0,1,.39-2.67,5,5,0,0,1,2.43-2.46A5.51,5.51,0,0,1,66.36,41a3.54,3.54,0,0,1,.73.07,5.54,5.54,0,0,1,2.53,1.23L85.91,55.46a5,5,0,0,1,1.39,1.7,4.69,4.69,0,0,1,.57,2.18,5.23,5.23,0,0,1-.38,2,6.25,6.25,0,0,1-1.06,1.71,5.9,5.9,0,0,1-1.6,1.28,5.22,5.22,0,0,1-2.47.67,5.06,5.06,0,0,1-3.45-1.45l-1.36-1.21-4.72,2.56.22,1.91a5.72,5.72,0,0,1-.55,3.21,4.9,4.9,0,0,1-2,2.07,6.05,6.05,0,0,1-1.93.66A6,6,0,0,1,67.61,72.86Z"/><path class="cls-7" d="M77.79,60.28,71,64,71.33,67A3.91,3.91,0,0,1,71,69.25a3.13,3.13,0,0,1-1.29,1.35,4.11,4.11,0,0,1-1.38.47,4,4,0,0,1-1.42,0,3.36,3.36,0,0,1-1.3-.52,3,3,0,0,1-1-1.09,3.06,3.06,0,0,1-.46-1.4L62.68,46.74A4.27,4.27,0,0,1,63,44.82a3.32,3.32,0,0,1,1.65-1.57,3.36,3.36,0,0,1,2.16-.5,3.93,3.93,0,0,1,1.76.87L84.86,56.83A3.28,3.28,0,0,1,85.78,58a2.78,2.78,0,0,1,.36,1.37,3.49,3.49,0,0,1-.25,1.36,4.36,4.36,0,0,1-.76,1.22,4,4,0,0,1-1.12.9,3.13,3.13,0,0,1-3.93-.54Zm-7.52-2.41,3.08-1.66-3.66-3.4Z"/><path class="cls-5" d="M96.65,59.74a4.77,4.77,0,0,1-1.56-.25,7.29,7.29,0,0,1-2.73-1.69l-14.8-15a7,7,0,0,1-.73-.84,5.86,5.86,0,0,1-.74-1.3,5.79,5.79,0,0,1-.43-2.78,6.37,6.37,0,0,1,.76-2.45,7.51,7.51,0,0,1,1.44-1.84A6.82,6.82,0,0,1,80,32.28a6.16,6.16,0,0,1,2.41-.47,6.87,6.87,0,0,1,1.1.08,6,6,0,0,1,3.59,2l4,4.56L91,32.19a6.41,6.41,0,0,1,1.14-3.87,6.28,6.28,0,0,1,2.75-2.21,7.27,7.27,0,0,1,2.32-.53h.46a7.13,7.13,0,0,1,2,.27,6.39,6.39,0,0,1,2.27,1.21,5.87,5.87,0,0,1,1.67,2.3,5.72,5.72,0,0,1,.43,1.46,5.52,5.52,0,0,1,0,1.29c-.6,21.25-.6,21.26-.6,21.3a7.44,7.44,0,0,1-.89,3.1,6.28,6.28,0,0,1-3.23,2.66A7,7,0,0,1,96.65,59.74Z"/><path class="cls-6" d="M96.65,58.59a3.85,3.85,0,0,1-1.19-.19A6.18,6.18,0,0,1,93.15,57L78.38,42a6.62,6.62,0,0,1-.63-.72,4.49,4.49,0,0,1-.6-1.05A4.63,4.63,0,0,1,76.81,38a5.29,5.29,0,0,1,.62-2,6.47,6.47,0,0,1,1.22-1.55,5.86,5.86,0,0,1,1.74-1.13,5.23,5.23,0,0,1,2-.38,5.79,5.79,0,0,1,.92.07,4.89,4.89,0,0,1,2.91,1.68l6.1,6.88-.14-9.42a5.2,5.2,0,0,1,3.18-5,6,6,0,0,1,2-.44h.39a6,6,0,0,1,1.64.23,5.1,5.1,0,0,1,1.85,1,4.61,4.61,0,0,1,1.35,1.85,4.82,4.82,0,0,1,.35,1.19,4.07,4.07,0,0,1,0,1.05s-.6,21.26-.6,21.28a6.29,6.29,0,0,1-.75,2.63,5.11,5.11,0,0,1-2.66,2.15A5.87,5.87,0,0,1,96.65,58.59Z"/><path class="cls-7" d="M94.1,46.23l-.22-14.09A3.45,3.45,0,0,1,96,28.77a4.47,4.47,0,0,1,2.83-.16,3.31,3.31,0,0,1,1.24.66,2.88,2.88,0,0,1,.85,1.18,3.63,3.63,0,0,1,.24.78,2.65,2.65,0,0,1,0,.69l-.6,21.27A4.62,4.62,0,0,1,100,55.1a3.46,3.46,0,0,1-1.81,1.39,3.21,3.21,0,0,1-2.2.27,4.37,4.37,0,0,1-1.66-1L79.61,40.81a4.88,4.88,0,0,1-.48-.54,2.91,2.91,0,0,1-.38-.67,3,3,0,0,1-.22-1.4A3.45,3.45,0,0,1,79,36.86a4.36,4.36,0,0,1,.88-1.13,4.06,4.06,0,0,1,1.22-.79,3.57,3.57,0,0,1,2-.2,3.17,3.17,0,0,1,1.89,1.11Z"/><path class="cls-5" d="M112.2,53.73l-.55,0a7.07,7.07,0,0,1-2.32-.58,6.24,6.24,0,0,1-2.1-1.49,6.44,6.44,0,0,1-1.52-5.28l3.53-21a7.45,7.45,0,0,1,1.19-3A6.12,6.12,0,0,1,114,20.13a7.68,7.68,0,0,1,2-.27,5.16,5.16,0,0,1,2.2.46,6.86,6.86,0,0,1,2.62,2.14l12.77,16.6a6.13,6.13,0,0,1,1.15,2.39,5.77,5.77,0,0,1,.06,2.8,6.41,6.41,0,0,1-1,2.29A7,7,0,0,1,132,48.23a6.85,6.85,0,0,1-2.22,1.05,6.7,6.7,0,0,1-1.75.24A6.06,6.06,0,0,1,123,46.67l-.57-.81-3.65,1L118.63,48a7.06,7.06,0,0,1-1.56,3.61,6.06,6.06,0,0,1-3,1.9A7,7,0,0,1,112.2,53.73Z"/><path class="cls-6" d="M112.2,52.58l-.46,0a5.88,5.88,0,0,1-1.95-.48,5.08,5.08,0,0,1-1.71-1.23,4.55,4.55,0,0,1-1.09-2,4.71,4.71,0,0,1-.15-2.25l3.54-21a6,6,0,0,1,1-2.51,5,5,0,0,1,2.94-1.82A6.27,6.27,0,0,1,116,21a4.09,4.09,0,0,1,1.73.36,5.74,5.74,0,0,1,2.17,1.78l12.77,16.61a5,5,0,0,1,1,2,4.52,4.52,0,0,1,0,2.25,5.2,5.2,0,0,1-.84,1.89,5.85,5.85,0,0,1-1.44,1.41,5.69,5.69,0,0,1-3.3,1.08A4.87,4.87,0,0,1,123.94,46l-1-1.49-5.18,1.38-.24,1.91a5.69,5.69,0,0,1-1.28,3,4.86,4.86,0,0,1-2.44,1.55A5.92,5.92,0,0,1,112.2,52.58Z"/><path class="cls-7" d="M123.63,42.55l-7.49,2-.37,3.07a3.9,3.9,0,0,1-.88,2.06,3.12,3.12,0,0,1-1.57,1,4.47,4.47,0,0,1-1.45.14,4.25,4.25,0,0,1-1.38-.35,3.43,3.43,0,0,1-1.15-.81,3,3,0,0,1-.68-1.28,3.19,3.19,0,0,1-.13-1.47l3.55-21.06a4.44,4.44,0,0,1,.71-1.81,3.33,3.33,0,0,1,2-1.14,3.26,3.26,0,0,1,2.22,0,4,4,0,0,1,1.51,1.25L131.3,40.85a3.28,3.28,0,0,1,.63,1.34,2.81,2.81,0,0,1,0,1.41,3.57,3.57,0,0,1-.57,1.27,4.26,4.26,0,0,1-1,1,4.2,4.2,0,0,1-1.3.62,3.15,3.15,0,0,1-3.7-1.44Zm-6.76-4.09,3.38-.9-2.77-4.16Z"/><path class="cls-5" d="M142.08,47.37c-3.76,0-6.12-2.33-6.31-6.22l-.92-19.08a6.14,6.14,0,0,1,1.81-4.9A6.51,6.51,0,0,1,141,15.31h.35a6.59,6.59,0,0,1,4.13,1.42,6.13,6.13,0,0,1,2.31,4.72l.61,12.6,1,0h.38a5.85,5.85,0,0,1,4.49,1.89,6.66,6.66,0,0,1,1.74,4.3,6.8,6.8,0,0,1-1.3,4.45A5.88,5.88,0,0,1,150,47l-7.44.36Z"/><path class="cls-6" d="M142.08,46.22c-3.12,0-5-1.87-5.16-5.13L136,22a5,5,0,0,1,1.46-4A5.35,5.35,0,0,1,141,16.46h.3a5.44,5.44,0,0,1,3.42,1.18,5,5,0,0,1,1.87,3.87l.66,13.74,2.11-.1h.32a4.8,4.8,0,0,1,3.64,1.51,5.92,5.92,0,0,1,.36,7.3,4.77,4.77,0,0,1-3.81,1.91l-7.43.36Z"/><path class="cls-7" d="M142.39,44.48c-2.38.11-3.63-1-3.74-3.47l-.92-19.08a3.29,3.29,0,0,1,.93-2.69,3.64,3.64,0,0,1,2.47-1,3.72,3.72,0,0,1,2.57.81,3.29,3.29,0,0,1,1.21,2.58l.74,15.47,3.83-.18a3.13,3.13,0,0,1,2.6.94,3.87,3.87,0,0,1,1,2.5,4,4,0,0,1-.76,2.61,3,3,0,0,1-2.49,1.2Z"/><path class="cls-5" d="M25.45,92.12h0C14.31,92.12,8.27,88.31,5.66,86l-.3-.25.13-.37c1.88-5.54,2.42-19.93,1.6-42.77l0-1.41,1,1A22.3,22.3,0,0,0,10.2,44l.13.1a23,23,0,0,0,13.22,4.25h.85c5.46,0,11.7-1.35,19.61-4.25l.09,0c.92-.34,1.82-.67,2.68-1,7.14-2.8,14.78-6.44,22.86-10.29,10.5-5,21.35-10.19,32.69-14.31l.41-.16.27-.09.2-.08,2.66-.93,1.1-.36.66-.22.69-.22,1.45-.45.62-.19c4.41-1.34,8.44-2.37,12.32-3.14a119,119,0,0,1,24.57-2.82c9.78,0,18.2,1.61,25,4.79l.25.13a38.91,38.91,0,0,1,18.92,16.74l.56,1-1.14-.16a22.68,22.68,0,0,0-3-.21c-8.64,0-11.58,5.6-11.7,5.84a2.29,2.29,0,0,0,.19,2.39,37.07,37.07,0,0,1,7.08,18.35l.12,1.45-1.08-1c-6.48-5.92-16.16-8.92-28.76-8.92-22.52,0-52.2,9.59-81.42,26.32C54.25,86.88,38.49,92.12,25.45,92.12ZM6.7,85.41C9.34,87.59,15.09,91,25.45,91h0c12.83,0,28.41-5.2,46.29-15.43,29.39-16.83,59.27-26.47,82-26.47,12.2,0,21.75,2.77,28.42,8.25A36.33,36.33,0,0,0,175.43,41a3.45,3.45,0,0,1-.28-3.58c.14-.27,3.39-6.47,12.73-6.47.66,0,1.34,0,2,.09A38,38,0,0,0,172.1,15.76a1.77,1.77,0,0,1-.31-.15c-6.64-3.09-14.9-4.67-24.51-4.67a117.6,117.6,0,0,0-24.34,2.8,122.1,122.1,0,0,0-12.21,3.12l-.63.19-1.43.44-.68.22-.65.21-.76.25-.34.11-2.64.93-.18.06-.29.11-.4.15c-11.29,4.1-22.12,9.27-32.59,14.26C62,37.66,54.38,41.31,47.2,44.13c-.87.34-1.77.68-2.68,1l-.1,0c-8.06,3-14.42,4.32-20,4.32h-.89A24.12,24.12,0,0,1,9.65,45l-.13-.1c-.42-.3-.83-.63-1.23-1C9,65.67,8.49,79.61,6.7,85.41Z"/><path class="cls-8" d="M105.12,15l-2.69.94C103,15.73,104,15.4,105.12,15Z"/><path class="cls-9" d="M43.24,41.93h0c-.54.26-9.79,4.59-19.57,4.1h0a22.54,22.54,0,0,1-11.92-3.8l-.12-.09a22.18,22.18,0,0,1-7.19-8.8s0-.34-.07-.91c0-.33,0-.72,0-1.18,0-6.08,2.61-21.66,32.7,4.9l1,.89C39.65,38.55,41.4,40.17,43.24,41.93Z"/><path class="cls-3" d="M183,70c-.06-.07-.53-.62-1.24-1.39a36.2,36.2,0,0,0-5.61-5.21l2.28,1.15a29,29,0,0,1,2.74,2.9,24.12,24.12,0,0,1,1.76,2.42.31.31,0,0,1,.05.1h0Z"/><line class="cls-9" x1="158.67" y1="108.23" x2="157.43" y2="110.33"/><path class="cls-7" d="M156.69,65.07l.54.13c-1.56-.2-3.06-.32-4.52-.37-42.63-1.54-46.66,53.45-87.58,28,3.46-1.7,9.24-4.4,12.83-6.45.82-.47,1.63-.93,2.45-1.38C105.71,97.11,115.5,56.57,153.78,64c1.22.22,2.46.51,3.73.85A4.16,4.16,0,0,0,156.69,65.07Z"/><path class="cls-2" d="M159,62.33c.32,0,.61,0,.83,0A7.79,7.79,0,0,0,159,62.33Z"/><path class="cls-7" d="M167.15,67.61c-2.12-3.59-4.6-4.89-6.74-5.2h-.12l-.27,0h-.2c-.22,0-.51,0-.83,0h-.13a9.75,9.75,0,0,0-5.21,1.7,4.62,4.62,0,0,0-.94.79c-2.87,3.13.74,8.78,7,9.09a25,25,0,0,1,13.38,5.22C173.07,79,172,75.76,167.15,67.61Zm-9.92-2.41-.54-.13a4.16,4.16,0,0,1,.82-.25c1.93-.43,6.94-.43,11,9.07C168.33,73.65,162,66.51,157.23,65.2Z"/><path class="cls-10" d="M160,62.36l.27,0Z"/></g></g></svg>