<svg xmlns="http://www.w3.org/2000/svg" xmlns:xlink="http://www.w3.org/1999/xlink" viewBox="0 0 377.45 185.71"><defs><style>.cls-1{fill:#f3ffff;}.cls-2{fill:#710c10;}.cls-3{fill:#ed1b26;}.cls-4{fill:url(#Degradado_sin_nombre_9);}.cls-5{fill:#ffb998;}.cls-6{fill:#4f160b;}.cls-7{fill:#f8fcff;}.cls-8{fill:#c51015;}.cls-9{fill:#fff;}.cls-10{fill:url(#Degradado_sin_nombre_9-2);}</style><linearGradient id="Degradado_sin_nombre_9" x1="-1.93" y1="124.21" x2="363.67" y2="57.51" gradientUnits="userSpaceOnUse"><stop offset="0" stop-color="#a60c16"/><stop offset="0.12" stop-color="#b50f19"/><stop offset="0.36" stop-color="#dc1722"/><stop offset="0.46" stop-color="#ed1b26"/><stop offset="0.56" stop-color="#e81a25"/><stop offset="0.68" stop-color="#d81821"/><stop offset="0.82" stop-color="#be151b"/><stop offset="0.97" stop-color="#9a1112"/><stop offset="1" stop-color="#921010"/></linearGradient><linearGradient id="Degradado_sin_nombre_9-2" x1="298.44" y1="116.33" x2="298.94" y2="116.33" xlink:href="#Degradado_sin_nombre_9"/></defs><g id="Capa_2" data-name="Capa 2"><g id="Capa_1-2" data-name="Capa 1"><path class="cls-1" d="M338.91,128c-2.7-2.94-7.2-7.61-10.46-9.71a39.89,39.89,0,0,0-5.22-3.34A54.76,54.76,0,0,0,311,110.18a96.57,96.57,0,0,0-24.29-2.82c-38.93,0-92.84,17.51-144.35,46.89l-.69.38q-11.94,6.84-23.28,12.18a239.41,239.41,0,0,1-27.21,10.94c-15.74,5.15-30.34,7.75-43.71,7.75A88.34,88.34,0,0,1,30,183.83C8.17,179.08.46,167.76,0,167.05a42.6,42.6,0,0,0,3.41,3.13l.1.09a54.26,54.26,0,0,0,11.08,6.9c7.75,3.64,18.54,6.72,32.88,6.72,20.32,0,43.58-6.09,69.4-18.16l24-12.49c51.95-29.73,106.47-47.5,145.84-47.5a110.13,110.13,0,0,1,15.47,1h0s0,0,0,0A72.36,72.36,0,0,1,318,110.74l0,0A52.89,52.89,0,0,1,328.66,117c1.49,1.14,2.83,2.28,4,3.4a54.83,54.83,0,0,1,5.1,5.41c.44.63.83,1.27,1.22,1.94l.05.08Z"/><path class="cls-1" d="M339.08,127.82l-.17.13c-2.7-2.94-7.2-7.61-10.46-9.71a39.89,39.89,0,0,0-5.22-3.34A54.76,54.76,0,0,0,311,110.18a96.57,96.57,0,0,0-24.29-2.82c-38.93,0-92.84,17.51-144.35,46.89l-.69.38q-11.94,6.84-23.28,12.18a239.41,239.41,0,0,1-27.21,10.94c-15.74,5.15-30.34,7.75-43.71,7.75A88.34,88.34,0,0,1,30,183.83C8.17,179.08.46,167.76,0,167.05a42.6,42.6,0,0,0,3.41,3.13l.1.09a54.26,54.26,0,0,0,11.08,6.9c7.75,3.64,18.54,6.72,32.88,6.72,20.32,0,43.58-6.09,69.4-18.16l24-12.49c51.95-29.73,106.47-47.5,145.84-47.5a110.13,110.13,0,0,1,15.47,1h0s0,0,0,0A72.36,72.36,0,0,1,318,110.74l0,0A52.89,52.89,0,0,1,328.66,117c1.49,1.14,2.83,2.28,4,3.4a54.83,54.83,0,0,1,5.1,5.41c.44.63.83,1.27,1.22,1.94Z"/><path class="cls-2" d="M339.08,127.82l-.17.13c-2.7-2.94-7.2-7.61-10.46-9.71a39.89,39.89,0,0,0-5.22-3.34A54.76,54.76,0,0,0,311,110.18a96.57,96.57,0,0,0-24.29-2.82c-38.93,0-92.84,17.51-144.35,46.89l-.69.38q-11.94,6.84-23.28,12.18a239.41,239.41,0,0,1-27.21,10.94c-15.74,5.15-30.34,7.75-43.71,7.75A88.34,88.34,0,0,1,30,183.83C8.17,179.08.46,167.76,0,167.05a42.6,42.6,0,0,0,3.41,3.13l.1.09a54.26,54.26,0,0,0,11.08,6.9c7.75,3.64,18.54,6.72,32.88,6.72,20.32,0,43.58-6.09,69.4-18.16q11.66-5.43,24-12.49c51.95-29.73,106.47-47.5,145.84-47.5a110.13,110.13,0,0,1,15.47,1h0s0,0,0,0A72.36,72.36,0,0,1,318,110.74l0,0A52.89,52.89,0,0,1,328.66,117c1.49,1.14,2.83,2.28,4,3.4a54.83,54.83,0,0,1,5.1,5.41c.44.63.83,1.27,1.22,1.94Z"/><path class="cls-2" d="M339.08,127.82l-.17.13c-2.7-2.94-7.2-7.61-10.46-9.71a39.89,39.89,0,0,0-5.22-3.34A54.76,54.76,0,0,0,311,110.18a96.57,96.57,0,0,0-24.29-2.82c-38.93,0-92.84,17.51-144.35,46.89l-.69.38q-11.94,6.84-23.28,12.18a239.41,239.41,0,0,1-27.21,10.94c-15.74,5.15-30.34,7.75-43.71,7.75A88.34,88.34,0,0,1,30,183.83C8.17,179.08.46,167.76,0,167.05a42.6,42.6,0,0,0,3.41,3.13l.1.09a54.26,54.26,0,0,0,11.08,6.9c7.75,3.64,18.54,6.72,32.88,6.72,20.32,0,43.58-6.09,69.4-18.16q11.66-5.43,24-12.49c51.95-29.73,106.47-47.5,145.84-47.5a110.13,110.13,0,0,1,15.47,1h0s0,0,0,0A72.36,72.36,0,0,1,318,110.74l0,0A52.89,52.89,0,0,1,328.66,117c1.49,1.14,2.83,2.28,4,3.4a54.83,54.83,0,0,1,5.1,5.41c.44.63.83,1.27,1.22,1.94Z"/><path class="cls-2" d="M96.27,57a1.67,1.67,0,0,0-.08-.3,6.46,6.46,0,0,0-.29-.88,4.74,4.74,0,0,0-1.52-2,4,4,0,0,0-2.26-.74,6.82,6.82,0,0,0-2.77.58L85.9,55.1l1.26,5.49.49,2.13.86,3.74L92,65a8.1,8.1,0,0,0,2.81-1.94,6.36,6.36,0,0,0,1.5-2.78,5.67,5.67,0,0,0,.19-1.38A7.11,7.11,0,0,0,96.27,57Zm-2,4.26a4.71,4.71,0,0,1-2.57,2.33l-1.72.73L89.39,62l-.48-2.13-.92-4,1.72-.73a3.66,3.66,0,0,1,2.73-.24,3,3,0,0,1,1.73,1.81,5.5,5.5,0,0,1,.25.75,1.38,1.38,0,0,1,.08.27,6.25,6.25,0,0,1,.14,2A4.9,4.9,0,0,1,94.22,61.24Z"/><path class="cls-2" d="M101.83,58l-.34-1.32L101,54.51l-.32-1.24-1-4.14L98,49.84l-.15.06,1.37,5.39.54,2.13,1,3.77.91-.42.8-.35Z"/><path class="cls-2" d="M108.16,57.57a3.05,3.05,0,0,1-1.63-.34,2.46,2.46,0,0,1-1.1-1.19,3.89,3.89,0,0,1-.14-.38l1.69-.79a1.48,1.48,0,0,0,.93,1,2,2,0,0,0,1.55-.17,2.7,2.7,0,0,0,1.27-1.06,1.41,1.41,0,0,0,0-1.34,1.23,1.23,0,0,0-.61-.62,2.58,2.58,0,0,0-.89-.21c-.33,0-.78,0-1.33,0a15.07,15.07,0,0,1-1.81,0,3.28,3.28,0,0,1-1.36-.43,2.54,2.54,0,0,1-1-1.2,3.11,3.11,0,0,1-.28-1.85,3.42,3.42,0,0,1,.83-1.68A5.05,5.05,0,0,1,106,46a4.91,4.91,0,0,1,2-.5,2.69,2.69,0,0,1,2.67,1.77l-1.8.84a1.31,1.31,0,0,0-.85-.86,2,2,0,0,0-1.45.18,2.55,2.55,0,0,0-1.2,1,1.41,1.41,0,0,0,0,1.31,1.17,1.17,0,0,0,.6.6,2.39,2.39,0,0,0,.91.22c.33,0,.78,0,1.33,0,.75,0,1.36,0,1.84.06a3.34,3.34,0,0,1,1.37.44,2.52,2.52,0,0,1,1,1.19,3,3,0,0,1,.25,1.78,3.47,3.47,0,0,1-.86,1.68A5.32,5.32,0,0,1,110,57.07,5.17,5.17,0,0,1,108.16,57.57Z"/><path class="cls-2" d="M120.25,39.43l.39,1.44-2.76,1.31,2.7,9.79-1.69.8L116.19,43l-2.78,1.31L113,42.86Z"/><path class="cls-2" d="M129.72,35.77a2.56,2.56,0,0,1,1.67,1.43,5.07,5.07,0,0,1,.21.61,4.08,4.08,0,0,1,0,2.27,4.14,4.14,0,0,1-1.46,2.09l3.84,3.43-2,1-3.61-3.37-1.32.63,1.25,4.49-1.7.81-3.1-11.23L127,36.2A3.87,3.87,0,0,1,129.72,35.77Zm0,2.42a1.38,1.38,0,0,0-.88-.8,2.08,2.08,0,0,0-1.41.25l-1.88.89,1.06,3.84,1.88-.89a2.52,2.52,0,0,0,1.3-1.2,2.3,2.3,0,0,0,.09-1.64A2.18,2.18,0,0,0,129.7,38.19Z"/><path class="cls-2" d="M136.11,31.9l3,11.24-1.7.8-3-11.24Z"/><path class="cls-2" d="M148,31.47A3.93,3.93,0,0,1,147,33a2,2,0,0,1,1.47.18,2.38,2.38,0,0,1,1.08,1.17,2.3,2.3,0,0,1,.17.48,3.21,3.21,0,0,1,0,1.74,3.91,3.91,0,0,1-.91,1.63,5.1,5.1,0,0,1-1.71,1.24l-4.17,1.92-2.95-11.27,4-1.83a3.81,3.81,0,0,1,2.46-.39,2.15,2.15,0,0,1,1.49,1.24,3.25,3.25,0,0,1,.18.5A3,3,0,0,1,148,31.47Zm-1.75-1.14a1.23,1.23,0,0,0-.82-.73,2,2,0,0,0-1.29.2l-2.12,1,.89,3.34,2.11-1a2.49,2.49,0,0,0,1.2-1,1.86,1.86,0,0,0,.15-1.43Q146.29,30.44,146.24,30.33Zm1.54,4.76a1.31,1.31,0,0,0-.9-.77,2,2,0,0,0-1.36.19l-2.25,1,.95,3.6,2.31-1.07a2.43,2.43,0,0,0,1.23-1.1,2,2,0,0,0,.15-1.53A3.1,3.1,0,0,0,147.78,35.09Z"/><path class="cls-2" d="M152.75,24.29l1.75,7.18a3.32,3.32,0,0,0,.22.65,1.81,1.81,0,0,0,1.1,1.1,2.38,2.38,0,0,0,1.69-.21,3.09,3.09,0,0,0,1.6-1.42,3.14,3.14,0,0,0,.15-2.21l-1.75-7.18,1.72-.76L161,28.62a5.17,5.17,0,0,1,0,2.59,4.93,4.93,0,0,1-1.15,2.09,5.77,5.77,0,0,1-1.95,1.38,4.22,4.22,0,0,1-2.85.32,3.07,3.07,0,0,1-2-1.86,5.78,5.78,0,0,1-.31-.91L151,25.05Z"/><path class="cls-2" d="M164,22.37a7.17,7.17,0,0,1,1.52-2.87A6.58,6.58,0,0,1,168,17.64a5.31,5.31,0,0,1,3.22-.35A4,4,0,0,1,173.72,19l-2.09.85a2.45,2.45,0,0,0-1.44-.81,3.29,3.29,0,0,0-1.78.26,4.47,4.47,0,0,0-1.77,1.27,4.58,4.58,0,0,0-1,2,5.18,5.18,0,0,0,0,2.35,5.31,5.31,0,0,0,.27.89,3.16,3.16,0,0,0,1.72,1.85,3.29,3.29,0,0,0,2.53-.09,4.31,4.31,0,0,0,1.6-1.13,3.89,3.89,0,0,0,.87-1.76l2.09-.85a6.61,6.61,0,0,1-1.37,3.31,6.9,6.9,0,0,1-2.83,2.11,5.21,5.21,0,0,1-2.57.41,4.26,4.26,0,0,1-2.25-.88,4.85,4.85,0,0,1-1.52-2.05,7.62,7.62,0,0,1-.33-1.08A6.9,6.9,0,0,1,164,22.37Z"/><path class="cls-2" d="M178.58,13.68l2.17,11.44-1.75.67-2.18-11.44Z"/><path class="cls-2" d="M186.88,22.26a4.39,4.39,0,0,1-2.17-1.09A5.12,5.12,0,0,1,183.34,19a7.09,7.09,0,0,1-.28-3.63,6.43,6.43,0,0,1,1.54-3.12,6.76,6.76,0,0,1,3-1.94,5.24,5.24,0,0,1,2.63-.24,4.26,4.26,0,0,1,2.17,1.08,5,5,0,0,1,1.37,2.18,7.12,7.12,0,0,1,.28,3.64,6.29,6.29,0,0,1-1.53,3.12,7,7,0,0,1-3.05,2A5.31,5.31,0,0,1,186.88,22.26Zm4.39-3.35a4.77,4.77,0,0,0,1-2.27,5.61,5.61,0,0,0-.25-2.59,3.21,3.21,0,0,0-1.55-2,3.16,3.16,0,0,0-2.52-.07,4.16,4.16,0,0,0-2.06,1.41,4.55,4.55,0,0,0-1,2.25,5.54,5.54,0,0,0,.25,2.6,3.26,3.26,0,0,0,1.56,2,3.09,3.09,0,0,0,2.51.09A4.26,4.26,0,0,0,191.27,18.91Z"/><path class="cls-2" d="M207.17,16.38l-1.81.51L199,9.79l.88,8.65-1.81.52L196.92,7.35l1.81-.51,6.34,7.08-.89-8.63,1.8-.51Z"/><path class="cls-2" d="M217.15,12.26l-1.13.28-3.19.78-.17-2.61-.06-1.05,2.91-.72.92-.23-.07-1.13,0-.34-.65.16-3.2.79-.24-3.53L215,4l1.6-.4-.09-1.49-1.38.33-4.77,1.18L210.68,9l.14,2.19.27,4.06,5.6-1.38.56-.14Z"/><path class="cls-2" d="M216.57,3.6,215,4a7.31,7.31,0,0,1,.13-1.56l1.38-.33Z"/><path class="cls-2" d="M217.15,12.26l.1,1.48-.56.14a7.29,7.29,0,0,1-.67-1.34Z"/><path class="cls-2" d="M228.57,8.1a2.83,2.83,0,0,0-.35-.91,2,2,0,0,0-.39-.5A3.44,3.44,0,0,0,226.59,6c-.34-.12-.76-.23-1.25-.36-.17,0-.34-.08-.53-.12-.53-.12-1-.22-1.29-.31a2.59,2.59,0,0,1-.83-.42,1.12,1.12,0,0,1-.44-.73,1.39,1.39,0,0,1,.32-1.27A2.3,2.3,0,0,1,224,2a1.88,1.88,0,0,1,1.45.16,1.33,1.33,0,0,1,.62,1L228,2.8a2.73,2.73,0,0,0-.71-1.53A2.86,2.86,0,0,0,225.8.46a4.89,4.89,0,0,0-2.05,0,5.18,5.18,0,0,0-2,.83,3.45,3.45,0,0,0-1.19,1.45,3.15,3.15,0,0,0-.16,1.86A2.66,2.66,0,0,0,221.15,6a2.6,2.6,0,0,0,.43.33,3,3,0,0,0,.78.39,16.22,16.22,0,0,0,1.77.44,11.91,11.91,0,0,1,1.29.29,2.32,2.32,0,0,1,.46.18,2,2,0,0,1,.36.23,1.17,1.17,0,0,1,.45.74,1.39,1.39,0,0,1-.32,1.3,2.73,2.73,0,0,1-1.48.74,2.11,2.11,0,0,1-1.55-.2,1.55,1.55,0,0,1-.69-1.15l-1.82.37a3.42,3.42,0,0,0,0,.41,2.55,2.55,0,0,0,.8,1.42,3.12,3.12,0,0,0,1.5.7,5,5,0,0,0,1.92-.05,5.52,5.52,0,0,0,2.08-.85,3.51,3.51,0,0,0,1.21-1.44A3,3,0,0,0,228.57,8.1Z"/><path class="cls-3" d="M332.41,72.68c7.3,10.13,17.12,29.07,13.37,51.18C320.22,79.3,225.65,95.73,137,146.48c-99.63,57-132.28,14.16-132.28,14.16,6.47-7.27,5-63,4-87.22-.28-6.88-.52-11.22-.52-11.22,3.82,7.28,8.31,12.64,13.4,16.41l.23.16c6.48,4.73,13.93,6.88,22.23,7.1h.09c10.83.28,23.09-2.74,36.49-7.65l0,0c1.65-.6,3.33-1.23,5-1.9,30.25-11.87,65.88-32.18,103.71-45.93l.75-.28c.15-.06.31-.11.46-.18l.45-.16,5-1.75.58-.19.07,0,1.44-.49,1.29-.42,1.33-.42,2.69-.83,1.25-.38A236.66,236.66,0,0,1,228,19.3c28.13-6,66.26-9.63,95.52,4.18h0c33.92,14.76,41.85,43.43,41.85,43.43C339.73,58.24,332.41,72.68,332.41,72.68Z"/><path class="cls-2" d="M377.45,66.17l-.67-2.4c-.23-.8-4.59-16.06-19.24-31.08a88.87,88.87,0,0,0-13.78-11.53L333,14.86c-1.27-.63-2.65-1.29-4.05-1.9l-.35-.17c-15-7.06-33.11-10.64-53.91-10.64a228.9,228.9,0,0,0-41.08,4,7.76,7.76,0,0,0-.6-1.42,5.68,5.68,0,0,0,.22-.7,231,231,0,0,1,41.46-4c21.13,0,39.57,3.64,54.83,10.84l.34.16c1.39.63,2.8,1.29,4.18,2l10.88,6.37A89,89,0,0,1,353.58,26l.1.08a86.39,86.39,0,0,1,6.63,6.39C372.46,46.27,377,64.25,377.45,66.17Z"/><path class="cls-2" d="M82.61,64.78l-.48-2.13c-2.48,1-4.93,1.94-7.32,2.8.61.53,1.21,1.08,1.81,1.63C78.59,66.36,80.58,65.59,82.61,64.78Z"/><path class="cls-4" d="M332.41,72.68c7.3,10.13,17.12,29.07,13.37,51.18C320.22,79.3,225.65,95.73,137,146.48c-99.63,57-132.28,14.16-132.28,14.16,6.47-7.27,5-63,4-87.22-.28-6.88-.52-11.22-.52-11.22,3.82,7.28,8.31,12.64,13.4,16.41l.23.16c6.48,4.73,13.93,6.88,22.23,7.1h.09c10.83.28,23.09-2.74,36.49-7.65l0,0c1.65-.6,3.33-1.23,5-1.9,30.25-11.87,65.88-32.18,103.71-45.93l.75-.28c.15-.06.31-.11.46-.18l.45-.16,5-1.75.58-.19.07,0,1.44-.49,1.29-.42,1.33-.42,2.69-.83,1.25-.38A236.66,236.66,0,0,1,228,19.3c28.13-6,66.26-9.63,95.52,4.18h0c33.92,14.76,41.85,43.43,41.85,43.43C339.73,58.24,332.41,72.68,332.41,72.68Z"/><path class="cls-5" d="M89.47,153a26,26,0,0,1-3.08-.18,27.45,27.45,0,0,1-11-3.64,28.51,28.51,0,0,1-8.18-7.37,31.62,31.62,0,0,1-5-9.64,34.13,34.13,0,0,1-1.61-11.3,27.35,27.35,0,0,1,2.69-11.16,28,28,0,0,1,7.31-9.28,33.8,33.8,0,0,1,11.86-6.24L86.18,93A12.84,12.84,0,0,1,90,92.38a11.16,11.16,0,0,1,1.42.09A11.85,11.85,0,0,1,96.05,94a12.28,12.28,0,0,1,3.41,3,12.54,12.54,0,0,1,2.07,4,12.94,12.94,0,0,1,.59,4.42A11.77,11.77,0,0,1,101,110a11.08,11.08,0,0,1-1.54,2.43,13,13,0,0,1,1.87.66,11.36,11.36,0,0,1,6.31,7.34l4.46,14.18a11.59,11.59,0,0,1-.9,9.83,12.42,12.42,0,0,1-7.13,5.46l-4.7,1.48A33.29,33.29,0,0,1,89.47,153Z"/><path class="cls-6" d="M89.47,150.83a23.91,23.91,0,0,1-2.83-.16,25.37,25.37,0,0,1-10.18-3.36,26.47,26.47,0,0,1-7.57-6.81,29.73,29.73,0,0,1-4.62-9,32,32,0,0,1-1.51-10.6,25,25,0,0,1,2.48-10.29A26,26,0,0,1,72,102.05a31.87,31.87,0,0,1,11.11-5.83l3.71-1.17a10,10,0,0,1,4.36-.45A9.91,9.91,0,0,1,95,95.87a10.31,10.31,0,0,1,4.53,5.78,10.69,10.69,0,0,1,.49,3.69,9.66,9.66,0,0,1-.91,3.73,10,10,0,0,1-2.35,3.11,10.2,10.2,0,0,1-3.83,2.13l-4.7,1.48a9.23,9.23,0,0,0-3.29,1.71,7.23,7.23,0,0,0-1.84,2.32,6.26,6.26,0,0,0-.66,2.61,8.27,8.27,0,0,0,.38,2.9,10.92,10.92,0,0,0,1.33,2.82A6.33,6.33,0,0,0,85.9,130a5.66,5.66,0,0,0,2.09.83L86.79,127a9.28,9.28,0,0,1,.75-7.87,9.94,9.94,0,0,1,5.67-4.44,10.59,10.59,0,0,1,3.17-.5,10.09,10.09,0,0,1,4.09.87,9.31,9.31,0,0,1,5.12,6l4.46,14.17a9.5,9.5,0,0,1-.69,8.07,10.3,10.3,0,0,1-5.93,4.53l-4.71,1.48A30.93,30.93,0,0,1,89.47,150.83Z"/><path class="cls-7" d="M107,136.2a6.38,6.38,0,0,1-.36,5.43,7.15,7.15,0,0,1-4.15,3.12l-4.7,1.48A25.92,25.92,0,0,1,87,147.47a22,22,0,0,1-8.89-2.92,23.2,23.2,0,0,1-6.65-6,26.22,26.22,0,0,1-4.13-8A28.88,28.88,0,0,1,66,121a21.89,21.89,0,0,1,2.16-9,22.81,22.81,0,0,1,5.94-7.51,28.63,28.63,0,0,1,10-5.22l3.71-1.17a7,7,0,0,1,3-.32,6.33,6.33,0,0,1,2.52.85,6.76,6.76,0,0,1,1.92,1.69,7.09,7.09,0,0,1,1.19,2.28,7.52,7.52,0,0,1,.34,2.58,6.51,6.51,0,0,1-.6,2.49,6.75,6.75,0,0,1-1.6,2.1,7,7,0,0,1-2.64,1.45l-4.7,1.48a12.31,12.31,0,0,0-4.43,2.34,10.65,10.65,0,0,0-2.63,3.34,9.65,9.65,0,0,0-1,3.91,11.54,11.54,0,0,0,.52,4,14.26,14.26,0,0,0,1.73,3.65,9.58,9.58,0,0,0,2.71,2.71A9,9,0,0,0,87.76,134a11.56,11.56,0,0,0,4.52-.33L89.86,126a6.17,6.17,0,0,1,.43-5.24,6.83,6.83,0,0,1,3.89-3,6.92,6.92,0,0,1,5,.25,6.13,6.13,0,0,1,3.34,4Z"/><path class="cls-5" d="M126.09,138a13.14,13.14,0,0,1-2.34-.21,11.68,11.68,0,0,1-4.45-1.8,10.86,10.86,0,0,1-3.55-3.93,11,11,0,0,1-1.5-5l-2.72-39.57a13.73,13.73,0,0,1,.87-5.92,11.37,11.37,0,0,1,5.51-5.68,12.4,12.4,0,0,1,5.86-1.65,9.37,9.37,0,0,1,1.76.17,12.69,12.69,0,0,1,5.67,2.74l30.38,24.56a11.38,11.38,0,0,1,3.13,3.83,10.78,10.78,0,0,1,1.32,5.06,12.1,12.1,0,0,1-.86,4.61,13.7,13.7,0,0,1-2.37,3.81,12.79,12.79,0,0,1-3.57,2.85,11.75,11.75,0,0,1-5.63,1.51,11.54,11.54,0,0,1-7.88-3.26l-1.38-1.23-6.21,3.35.25,2.12a13,13,0,0,1-1.27,7.22,11.15,11.15,0,0,1-4.62,4.77,13.4,13.4,0,0,1-4.28,1.46A13.67,13.67,0,0,1,126.09,138Z"/><path class="cls-6" d="M126.09,135.88a10.83,10.83,0,0,1-2-.18,9.58,9.58,0,0,1-3.63-1.46,9.93,9.93,0,0,1-4.11-7.19L113.68,87.4a11.49,11.49,0,0,1,.72-5,9.28,9.28,0,0,1,4.54-4.58,10.21,10.21,0,0,1,4.83-1.39,7.53,7.53,0,0,1,1.35.13,10.7,10.7,0,0,1,4.72,2.29l30.38,24.57a9.25,9.25,0,0,1,2.6,3.18,8.63,8.63,0,0,1,1.06,4.06,9.73,9.73,0,0,1-.71,3.78,11.1,11.1,0,0,1-2,3.2,10.89,10.89,0,0,1-3,2.39,9.7,9.7,0,0,1-4.61,1.24,9.44,9.44,0,0,1-6.43-2.7l-2.53-2.25-8.81,4.76.41,3.57a10.65,10.65,0,0,1-1,6,9,9,0,0,1-3.74,3.87,11.16,11.16,0,0,1-3.59,1.23A11.86,11.86,0,0,1,126.09,135.88Z"/><path class="cls-7" d="M145.09,112.42l-12.7,6.87L133,125a7.49,7.49,0,0,1-.69,4.12,5.9,5.9,0,0,1-2.42,2.54,7.9,7.9,0,0,1-2.57.87,7.61,7.61,0,0,1-2.65,0,6.29,6.29,0,0,1-2.43-1,5.44,5.44,0,0,1-1.8-2,5.78,5.78,0,0,1-.86-2.61l-2.73-39.74a8.33,8.33,0,0,1,.51-3.59,6.25,6.25,0,0,1,3.07-2.93,6.17,6.17,0,0,1,4-.92,7.44,7.44,0,0,1,3.29,1.61L158.27,106a6.3,6.3,0,0,1,1.71,2.15,5.36,5.36,0,0,1,.68,2.56,6.5,6.5,0,0,1-.48,2.55,7.83,7.83,0,0,1-1.42,2.27,7.69,7.69,0,0,1-2.08,1.68,5.88,5.88,0,0,1-7.34-1Zm-14-4.48,5.74-3.11L130,98.5Z"/><path class="cls-5" d="M180.26,111.41a9,9,0,0,1-2.91-.46,13.63,13.63,0,0,1-5.1-3.15L144.66,79.89a12.78,12.78,0,0,1-1.38-1.55,11.11,11.11,0,0,1-1.38-2.44,10.71,10.71,0,0,1-.78-5.17,11.75,11.75,0,0,1,1.41-4.59,14,14,0,0,1,2.68-3.43,12.89,12.89,0,0,1,3.91-2.51,11.54,11.54,0,0,1,4.48-.88,13.06,13.06,0,0,1,2.05.16,11.18,11.18,0,0,1,6.71,3.83l7.53,8.5L169.71,60a11.93,11.93,0,0,1,2.13-7.2A11.67,11.67,0,0,1,177,48.7a13.35,13.35,0,0,1,4.33-1l.85,0a13.21,13.21,0,0,1,3.66.52A11.61,11.61,0,0,1,190,50.45a10.75,10.75,0,0,1,3.12,4.28,11.7,11.7,0,0,1,.81,2.73,10.14,10.14,0,0,1,.05,2.41c-1.12,39.62-1.12,39.65-1.13,39.72a13.87,13.87,0,0,1-1.66,5.78,11.64,11.64,0,0,1-6,5A12.9,12.9,0,0,1,180.26,111.41Z"/><path class="cls-6" d="M180.26,109.26a6.85,6.85,0,0,1-2.23-.35,11.52,11.52,0,0,1-4.3-2.67L146.19,78.38A10.58,10.58,0,0,1,145,77a8.91,8.91,0,0,1-1.74-6.11,9.48,9.48,0,0,1,1.15-3.75,11.92,11.92,0,0,1,2.27-2.9,10.78,10.78,0,0,1,3.26-2.1,9.62,9.62,0,0,1,3.66-.71,11,11,0,0,1,1.71.13,9.06,9.06,0,0,1,5.44,3.13l11.38,12.84L171.86,60a9.83,9.83,0,0,1,1.73-5.93,9.63,9.63,0,0,1,4.2-3.39,11.31,11.31,0,0,1,3.64-.83l.72,0a11.2,11.2,0,0,1,3.06.43,9.56,9.56,0,0,1,3.46,1.84,8.83,8.83,0,0,1,2.51,3.45,9.33,9.33,0,0,1,.66,2.23,8,8,0,0,1,0,2s-1.12,39.65-1.12,39.69a11.74,11.74,0,0,1-1.4,4.9,9.53,9.53,0,0,1-4.95,4A10.86,10.86,0,0,1,180.26,109.26Z"/><path class="cls-7" d="M175.49,86.22,175.08,60a6.63,6.63,0,0,1,1.13-4A6.44,6.44,0,0,1,179,53.66a8.29,8.29,0,0,1,2.61-.59,7.65,7.65,0,0,1,2.67.29,6.27,6.27,0,0,1,2.31,1.22,5.51,5.51,0,0,1,1.59,2.2,6.13,6.13,0,0,1,.45,1.47,4.49,4.49,0,0,1,0,1.27L187.53,99.2a8.53,8.53,0,0,1-1,3.57,6.42,6.42,0,0,1-3.36,2.59,6,6,0,0,1-4.12.5,8.43,8.43,0,0,1-3.09-2l-27.48-27.8a8.74,8.74,0,0,1-.91-1,5.56,5.56,0,0,1-.7-1.25,5.4,5.4,0,0,1-.41-2.61,6.46,6.46,0,0,1,.78-2.5,8.51,8.51,0,0,1,1.64-2.11,7.74,7.74,0,0,1,2.29-1.47,6.61,6.61,0,0,1,3.64-.37,5.93,5.93,0,0,1,3.52,2.07Z"/><path class="cls-5" d="M209.25,100.21c-.34,0-.68,0-1,0a13.32,13.32,0,0,1-4.32-1.08A11.67,11.67,0,0,1,200,96.3a10.79,10.79,0,0,1-2.54-4.65,11.06,11.06,0,0,1-.3-5.19l6.59-39.11A13.65,13.65,0,0,1,206,41.79a11.41,11.41,0,0,1,6.69-4.24,14.1,14.1,0,0,1,3.63-.51,10,10,0,0,1,4.12.85,12.82,12.82,0,0,1,4.88,4l23.8,31a11.19,11.19,0,0,1,2.16,4.46,10.65,10.65,0,0,1,.1,5.23,11.85,11.85,0,0,1-1.91,4.27,13.35,13.35,0,0,1-3.2,3.16,13,13,0,0,1-4.13,2,12.85,12.85,0,0,1-3.27.44,11.28,11.28,0,0,1-9.45-5.3l-1.07-1.52-6.81,1.81-.26,2.12a12.93,12.93,0,0,1-2.91,6.73,11.23,11.23,0,0,1-5.61,3.56A13.67,13.67,0,0,1,209.25,100.21Z"/><path class="cls-6" d="M209.25,98.06c-.29,0-.57,0-.86,0a11.33,11.33,0,0,1-3.63-.91,9.52,9.52,0,0,1-3.2-2.28,8.74,8.74,0,0,1-2-3.74,9,9,0,0,1-.28-4.19l6.61-39.2A11.37,11.37,0,0,1,207.72,43a9.34,9.34,0,0,1,5.48-3.39,12.1,12.1,0,0,1,3.08-.44,7.74,7.74,0,0,1,3.23.66,10.59,10.59,0,0,1,4.05,3.33l23.82,31a9.2,9.2,0,0,1,1.78,3.7,8.54,8.54,0,0,1,.09,4.2,10,10,0,0,1-1.57,3.51A11,11,0,0,1,245,88.2a10.79,10.79,0,0,1-3.45,1.63,10.46,10.46,0,0,1-2.72.37,9,9,0,0,1-7.68-4.36l-1.94-2.78-9.66,2.58-.44,3.56a10.7,10.7,0,0,1-2.4,5.58,9.08,9.08,0,0,1-4.54,2.89A11.16,11.16,0,0,1,209.25,98.06Z"/><path class="cls-7" d="M230.56,79.36l-13.95,3.73-.7,5.72a7.51,7.51,0,0,1-1.63,3.85,5.93,5.93,0,0,1-2.94,1.9,8,8,0,0,1-2.7.25,7.77,7.77,0,0,1-2.58-.64,6.21,6.21,0,0,1-2.13-1.52,5.46,5.46,0,0,1-1.29-2.38,5.88,5.88,0,0,1-.22-2.75L209,48.24a8.31,8.31,0,0,1,1.33-3.37A6.3,6.3,0,0,1,214,42.74a6.17,6.17,0,0,1,4.15,0A7.34,7.34,0,0,1,221,45.12l23.89,31.07a6.15,6.15,0,0,1,1.17,2.49,5.38,5.38,0,0,1,.06,2.64,6.69,6.69,0,0,1-1.06,2.37,7.73,7.73,0,0,1-1.91,1.87,7.36,7.36,0,0,1-2.42,1.15,5.87,5.87,0,0,1-6.9-2.68ZM218,71.73l6.31-1.68-5.16-7.75Z"/><path class="cls-5" d="M265,88.34c-7,0-11.41-4.34-11.76-11.6L251.5,41.16A11.42,11.42,0,0,1,254.87,32a12.12,12.12,0,0,1,8.07-3.47h.66a12.26,12.26,0,0,1,7.71,2.65,11.44,11.44,0,0,1,4.31,8.8l1.13,23.49,1.77-.08c.24,0,.48,0,.71,0a11,11,0,0,1,8.37,3.51,12.5,12.5,0,0,1,3.25,8,12.66,12.66,0,0,1-2.43,8.3,11,11,0,0,1-8.73,4.43l-13.87.67Z"/><path class="cls-6" d="M265,86.19c-5.81,0-9.32-3.48-9.61-9.56l-1.71-35.58a9.36,9.36,0,0,1,2.71-7.49,10.1,10.1,0,0,1,6.69-2.86h.55a10.15,10.15,0,0,1,6.39,2.2,9.33,9.33,0,0,1,3.48,7.21l1.23,25.63,3.93-.19h.6A8.87,8.87,0,0,1,286,68.34a10.41,10.41,0,0,1,2.7,6.69,10.61,10.61,0,0,1-2,6.92,8.93,8.93,0,0,1-7.1,3.56l-13.87.66C265.47,86.19,265.22,86.19,265,86.19Z"/><path class="cls-7" d="M265.56,83q-6.66.33-7-6.47L256.87,40.9a6.18,6.18,0,0,1,1.73-5,6.92,6.92,0,0,1,4.6-2,7,7,0,0,1,4.8,1.51,6.13,6.13,0,0,1,2.25,4.82l1.39,28.86,7.14-.35a5.81,5.81,0,0,1,4.85,1.75,7.22,7.22,0,0,1,1.86,4.67,7.41,7.41,0,0,1-1.4,4.87,5.78,5.78,0,0,1-4.66,2.24Z"/><path class="cls-5" d="M47.47,171.8h0c-20.76,0-32-7.11-36.91-11.35L10,160l.24-.68c3.51-10.34,4.51-37.17,3-79.77l-.09-2.63L15,78.71a41.19,41.19,0,0,0,4,3.35l.25.18c6.86,5,15.15,7.67,24.65,7.93H44l1.48,0c10.19,0,21.81-2.52,36.57-7.93l.17-.07c1.72-.62,3.38-1.26,5-1.89,13.33-5.23,27.56-12,42.64-19.21,19.58-9.34,39.82-19,61-26.69l.77-.28.5-.19.38-.13,5-1.74,2-.68,1.24-.4,1.29-.41,2.7-.84c.33-.09.74-.22,1.15-.35a235.19,235.19,0,0,1,23-5.87,222.51,222.51,0,0,1,45.82-5.25c18.24,0,33.95,3,46.68,8.94.2.11.33.17.46.23,19.59,8.52,30,21.69,35.29,31.23l1,1.87L356,60.24a42.6,42.6,0,0,0-5.63-.4c-16.12,0-21.6,10.45-21.82,10.9a4.26,4.26,0,0,0,.35,4.45c5.37,7.46,12,19.45,13.21,34.22l.22,2.72-2-1.84c-12.09-11-30.13-16.63-53.63-16.63-42,0-97.35,17.89-151.85,49.09C101.18,162,71.78,171.8,47.47,171.8Zm-35-12.51c4.91,4.07,15.64,10.36,35,10.36h0c23.93,0,53-9.68,86.32-28.77,54.82-31.38,110.55-49.37,152.92-49.37,22.75,0,40.57,5.18,53,15.4-1.68-13.06-7.65-23.69-12.53-30.46a6.44,6.44,0,0,1-.52-6.68c.25-.5,6.31-12.08,23.74-12.08q1.85,0,3.78.18c-5.41-9-15.41-20.72-33.21-28.47a6.45,6.45,0,0,1-.59-.29c-12.37-5.76-27.77-8.7-45.7-8.7a219.92,219.92,0,0,0-45.39,5.21,227.66,227.66,0,0,0-22.78,5.82l-1.17.35-2.68.83-1.27.41-1.21.39-1.4.47-.64.21c-1.64.57-3.29,1.14-4.92,1.72l-.35.12-.52.2-.76.28C170.53,44.08,150.34,53.71,130.81,63,115.69,70.24,101.42,77,88,82.3c-1.62.64-3.31,1.28-5,1.89l-.19.08c-15,5.51-26.88,8.07-37.33,8.07l-1.51,0h-.15C33.91,92.05,25.21,89.24,18,84l-.25-.18c-.78-.57-1.54-1.18-2.29-1.82C16.84,122.48,15.84,148.47,12.5,159.29Z"/><path class="cls-8" d="M196.05,28l-5,1.75C192.17,29.33,193.87,28.72,196.05,28Z"/><path class="cls-2" d="M80.65,78.2l0,0c-1,.49-18.27,8.56-36.49,7.65H44a42,42,0,0,1-22.23-7.1l-.23-.16A41.49,41.49,0,0,1,8.17,62.2S8.1,61.57,8,60.51c0-.62,0-1.36,0-2.21C8,47,12.85,17.9,69,67.45c.61.53,1.23,1.09,1.86,1.65Q75.5,73.29,80.65,78.2Z"/><path class="cls-9" d="M341.22,130.55c-.1-.13-1-1.16-2.32-2.6-2.69-2.94-7.2-7.62-10.45-9.71l4.25,2.15a53.88,53.88,0,0,1,5.11,5.41,45.31,45.31,0,0,1,3.29,4.52.7.7,0,0,1,.09.17l0,0A0,0,0,0,1,341.22,130.55Z"/><path class="cls-2" d="M292.22,121.36c.34.07.68.14,1,.24-2.91-.37-5.72-.59-8.44-.69-79.49-2.87-87,99.68-163.34,52.27,6.46-3.16,17.24-8.2,23.94-12,1.53-.87,3-1.73,4.56-2.58,47.19,22.54,65.45-53.08,136.85-39.28q3.39.63,6.94,1.58A7.52,7.52,0,0,0,292.22,121.36Z"/><path class="cls-3" d="M296.51,116.25c.61,0,1.14,0,1.56,0A13.71,13.71,0,0,0,296.51,116.25Z"/><path class="cls-2" d="M311.74,126.08c-4-6.68-8.59-9.1-12.57-9.69h-.23l-.5,0a2.13,2.13,0,0,0-.37,0c-.42,0-.95,0-1.56,0h-.24a18,18,0,0,0-9.7,3.18,9,9,0,0,0-1.77,1.47c-5.34,5.84,1.38,16.37,13.08,17,13.94.67,24.62,9.47,25,9.74C322.78,147.41,320.77,141.3,311.74,126.08Zm-18.5-4.48c-.34-.1-.68-.17-1-.24a7.52,7.52,0,0,1,1.53-.48c3.61-.8,12.95-.8,20.57,16.92C313.94,137.36,302.16,124,293.24,121.6Z"/><path class="cls-10" d="M298.44,116.31c.21,0,.38,0,.5,0Z"/></g></g></svg>