<svg xmlns="http://www.w3.org/2000/svg" xmlns:xlink="http://www.w3.org/1999/xlink" viewBox="0 0 183.42 86.22"><defs><style>.cls-1{fill:#f3ffff;}.cls-2{fill:#ed1b26;}.cls-3{fill:url(#Degradado_sin_nombre_9);}.cls-4{fill:#ffb998;}.cls-5{fill:#4f160b;}.cls-6{fill:#f8fcff;}.cls-7{fill:#c51015;}.cls-8{fill:#710c10;}.cls-9{fill:#fff;}.cls-10{fill:url(#Degradado_sin_nombre_9-2);}.cls-11{fill:url(#Degradado_sin_nombre_9-3);}.cls-12{fill:url(#Degradado_sin_nombre_9-4);}</style><linearGradient id="Degradado_sin_nombre_9" x1="-0.97" y1="55.35" x2="182.56" y2="21.86" gradientUnits="userSpaceOnUse"><stop offset="0" stop-color="#a60c16"/><stop offset="0.12" stop-color="#b50f19"/><stop offset="0.36" stop-color="#dc1722"/><stop offset="0.46" stop-color="#ed1b26"/><stop offset="0.56" stop-color="#e81a25"/><stop offset="0.68" stop-color="#d81821"/><stop offset="0.82" stop-color="#be151b"/><stop offset="0.97" stop-color="#9a1112"/><stop offset="1" stop-color="#921010"/></linearGradient><linearGradient id="Degradado_sin_nombre_9-2" x1="60.97" y1="69.12" x2="248.61" y2="69.12" xlink:href="#Degradado_sin_nombre_9"/><linearGradient id="Degradado_sin_nombre_9-3" x1="129.75" y1="59.21" x2="178.21" y2="59.21" xlink:href="#Degradado_sin_nombre_9"/><linearGradient id="Degradado_sin_nombre_9-4" x1="149.82" y1="51.39" x2="150.07" y2="51.39" xlink:href="#Degradado_sin_nombre_9"/></defs><g id="Capa_2" data-name="Capa 2"><g id="Capa_1-2" data-name="Capa 1"><path class="cls-1" d="M170.13,57.22a33.45,33.45,0,0,0-5.25-4.87,18.82,18.82,0,0,0-2.62-1.68,27.13,27.13,0,0,0-6.14-2.37,48.42,48.42,0,0,0-12.19-1.42c-19.55,0-46.61,8.79-72.47,23.54l-.34.2q-6,3.42-11.69,6.11a121,121,0,0,1-13.66,5.49,70.88,70.88,0,0,1-21.94,3.89,44.64,44.64,0,0,1-8.8-.84C4.1,82.89.23,77.21,0,76.85a21.42,21.42,0,0,0,1.71,1.57l.05,0a27.17,27.17,0,0,0,5.56,3.47A38.54,38.54,0,0,0,23.83,85.3c10.2,0,21.88-3.06,34.84-9.11l12-6.28C96.79,55,124.16,46.07,143.93,46.07a55.46,55.46,0,0,1,7.76.52h0a36,36,0,0,1,7.91,2s0,0,0,0A26.47,26.47,0,0,1,165,51.72c.75.57,1.43,1.14,2,1.7a28.8,28.8,0,0,1,2.56,2.72c.22.32.42.64.61,1l0,0Z"/><path class="cls-1" d="M170.22,57.16l-.09.06a33.45,33.45,0,0,0-5.25-4.87,18.82,18.82,0,0,0-2.62-1.68,27.13,27.13,0,0,0-6.14-2.37,48.42,48.42,0,0,0-12.19-1.42c-19.55,0-46.61,8.79-72.47,23.54l-.34.2q-6,3.42-11.69,6.11a121,121,0,0,1-13.66,5.49,70.88,70.88,0,0,1-21.94,3.89,44.64,44.64,0,0,1-8.8-.84C4.1,82.89.23,77.21,0,76.85a21.42,21.42,0,0,0,1.71,1.57l.05,0a27.17,27.17,0,0,0,5.56,3.47A38.54,38.54,0,0,0,23.83,85.3c10.2,0,21.88-3.06,34.84-9.11l12-6.28C96.79,55,124.16,46.07,143.93,46.07a55.46,55.46,0,0,1,7.76.52h0a36,36,0,0,1,7.91,2s0,0,0,0A26.47,26.47,0,0,1,165,51.72c.75.57,1.43,1.14,2,1.7a28.8,28.8,0,0,1,2.56,2.72c.22.32.42.64.61,1Z"/><path class="cls-2" d="M166.87,29.47c3.66,5.09,8.59,14.6,6.71,25.7C160.75,32.8,113.28,41,68.77,66.52c-50,28.63-66.4,7.11-66.4,7.11C5.61,70,4.85,42,4.36,29.85c-.14-3.46-.26-5.63-.26-5.63a23.6,23.6,0,0,0,6.73,8.23l.11.08A19.29,19.29,0,0,0,22.1,36.1h0c5.43.14,11.59-1.38,18.31-3.84h0c.84-.31,1.68-.62,2.52-1,15.19-6,33.08-16.15,52.07-23.06l.37-.14L95.68,8l.22-.08,2.52-.88.29-.1h0l.73-.24.64-.21.67-.21,1.35-.43c.21,0,.42-.12.63-.18a115.51,115.51,0,0,1,11.71-3c14.12-3,33.26-4.84,47.95,2.1h0c17,7.41,21,21.8,21,21.8C170.54,22.23,166.87,29.47,166.87,29.47Z"/><path class="cls-3" d="M166.87,29.47c3.66,5.09,8.59,14.6,6.71,25.7C160.75,32.8,113.28,41,68.77,66.52c-50,28.63-66.4,7.11-66.4,7.11C5.61,70,4.85,42,4.36,29.85c-.14-3.46-.26-5.63-.26-5.63a23.6,23.6,0,0,0,6.73,8.23l.11.08A19.29,19.29,0,0,0,22.1,36.1h0c5.43.14,11.59-1.38,18.31-3.84h0c.84-.31,1.68-.62,2.52-1,15.19-6,33.08-16.15,52.07-23.06l.37-.14L95.68,8l.22-.08,2.52-.88.29-.1h0l.73-.24.64-.21.67-.21,1.35-.43c.21,0,.42-.12.63-.18a115.51,115.51,0,0,1,11.71-3c14.12-3,33.26-4.84,47.95,2.1h0c17,7.41,21,21.8,21,21.8C170.54,22.23,166.87,29.47,166.87,29.47Z"/><path class="cls-4" d="M44.91,69.78a13,13,0,0,1-1.54-.08,13.9,13.9,0,0,1-5.54-1.83,14.52,14.52,0,0,1-4.11-3.7,16,16,0,0,1-2.49-4.84,17,17,0,0,1-.8-5.68,13.65,13.65,0,0,1,1.35-5.6,14.14,14.14,0,0,1,3.67-4.66,17.14,17.14,0,0,1,5.95-3.13l1.86-.58a6.34,6.34,0,0,1,1.94-.31,5.74,5.74,0,0,1,.71,0,6.08,6.08,0,0,1,2.31.78,6.34,6.34,0,0,1,1.71,1.51,6.53,6.53,0,0,1,1,2,6.43,6.43,0,0,1,.29,2.22,5.91,5.91,0,0,1-1.33,3.51,5.53,5.53,0,0,1,.94.33A5.72,5.72,0,0,1,54,53.44l2.24,7.11a5.83,5.83,0,0,1-.45,4.94,6.26,6.26,0,0,1-3.58,2.74L49.88,69A16.64,16.64,0,0,1,44.91,69.78Z"/><path class="cls-5" d="M44.91,68.71a11,11,0,0,1-1.42-.09,12.55,12.55,0,0,1-5.11-1.68,13.49,13.49,0,0,1-3.8-3.42A15.2,15.2,0,0,1,32.26,59a16.3,16.3,0,0,1-.76-5.33,12.72,12.72,0,0,1,1.25-5.16,13,13,0,0,1,3.39-4.3,16,16,0,0,1,5.58-2.93l1.86-.59a4.84,4.84,0,0,1,2.19-.22,4.82,4.82,0,0,1,1.89.64,5.12,5.12,0,0,1,1.42,1.24A5.47,5.47,0,0,1,49.94,44a5.27,5.27,0,0,1,.24,1.85,4.76,4.76,0,0,1-.45,1.87,5,5,0,0,1-3.1,2.63l-2.36.75a4.69,4.69,0,0,0-1.66.85,3.72,3.72,0,0,0-.92,1.17,3.17,3.17,0,0,0-.33,1.31,4.13,4.13,0,0,0,.19,1.45,5.46,5.46,0,0,0,.67,1.42,3.25,3.25,0,0,0,.9.91,2.85,2.85,0,0,0,1.05.41l-.6-1.91a4.69,4.69,0,0,1,.37-3.95,5,5,0,0,1,2.85-2.23,5.22,5.22,0,0,1,1.59-.25,4.91,4.91,0,0,1,2,.44,4.67,4.67,0,0,1,2.58,3l2.23,7.12a4.75,4.75,0,0,1-.34,4.05,5.21,5.21,0,0,1-3,2.27l-2.36.74A15.49,15.49,0,0,1,44.91,68.71Z"/><path class="cls-6" d="M53.7,61.36a3.26,3.26,0,0,1-.18,2.73,3.66,3.66,0,0,1-2.09,1.57l-2.36.74a13.11,13.11,0,0,1-5.39.62,11,11,0,0,1-4.46-1.47,11.54,11.54,0,0,1-3.34-3,13.28,13.28,0,0,1-2.07-4,14.4,14.4,0,0,1-.69-4.79,11,11,0,0,1,1.09-4.51,11.41,11.41,0,0,1,3-3.77,14.51,14.51,0,0,1,5-2.62l1.86-.58a3.45,3.45,0,0,1,1.5-.16,3.34,3.34,0,0,1,1.27.42,3.54,3.54,0,0,1,1,.85,3.66,3.66,0,0,1,.6,1.14,3.85,3.85,0,0,1,.17,1.3,3.28,3.28,0,0,1-.3,1.25,3.45,3.45,0,0,1-.8,1.05,3.63,3.63,0,0,1-1.33.73l-2.36.74a6.15,6.15,0,0,0-2.22,1.18,5.3,5.3,0,0,0-1.32,1.67,4.83,4.83,0,0,0-.5,2,5.82,5.82,0,0,0,.26,2,7.34,7.34,0,0,0,.87,1.83,4.76,4.76,0,0,0,1.36,1.36,4.7,4.7,0,0,0,1.83.69,5.8,5.8,0,0,0,2.26-.17l-1.21-3.86a3.07,3.07,0,0,1,.22-2.62,3.55,3.55,0,0,1,4.45-1.4,3,3,0,0,1,1.68,2Z"/><path class="cls-4" d="M63.3,62.28a6.64,6.64,0,0,1-1.18-.11,5.71,5.71,0,0,1-2.23-.9,5.38,5.38,0,0,1-1.78-2,5.61,5.61,0,0,1-.76-2.5L56,36.94a7,7,0,0,1,.43-3,5.72,5.72,0,0,1,2.77-2.85,6.16,6.16,0,0,1,2.94-.82,4.24,4.24,0,0,1,.88.08,6.45,6.45,0,0,1,2.85,1.37L81.11,44.07A5.75,5.75,0,0,1,82.68,46a5.36,5.36,0,0,1,.67,2.55,6.08,6.08,0,0,1-.44,2.31,6.71,6.71,0,0,1-1.19,1.91,6.49,6.49,0,0,1-1.79,1.44A5.88,5.88,0,0,1,77.1,55a5.75,5.75,0,0,1-3.95-1.64l-.69-.61-3.12,1.68.12,1.06a6.47,6.47,0,0,1-.63,3.63,5.58,5.58,0,0,1-2.32,2.39,6.68,6.68,0,0,1-2.15.73A6.32,6.32,0,0,1,63.3,62.28Z"/><path class="cls-5" d="M63.3,61.2a5.33,5.33,0,0,1-1-.09,4.79,4.79,0,0,1-1.83-.73,4.34,4.34,0,0,1-1.43-1.6,4.42,4.42,0,0,1-.63-2L57.07,36.86a5.72,5.72,0,0,1,.36-2.5,4.64,4.64,0,0,1,2.28-2.3,5.13,5.13,0,0,1,2.42-.7,3.82,3.82,0,0,1,.68.07,5.29,5.29,0,0,1,2.37,1.15L80.43,44.91a4.57,4.57,0,0,1,1.3,1.6,4.35,4.35,0,0,1,.54,2,5.08,5.08,0,0,1-.36,1.89,5.68,5.68,0,0,1-2.49,2.81,4.86,4.86,0,0,1-2.32.62,4.72,4.72,0,0,1-3.22-1.35l-1.27-1.13-4.42,2.39.2,1.79a5.36,5.36,0,0,1-.52,3A4.52,4.52,0,0,1,66,60.51a5.5,5.5,0,0,1-1.8.62A5.34,5.34,0,0,1,63.3,61.2Z"/><path class="cls-6" d="M72.83,49.42l-6.37,3.46.32,2.87a3.69,3.69,0,0,1-.34,2.07,2.94,2.94,0,0,1-1.22,1.27,3.89,3.89,0,0,1-1.28.44,4,4,0,0,1-1.34,0A3.12,3.12,0,0,1,61.39,59a2.73,2.73,0,0,1-.91-1,2.87,2.87,0,0,1-.43-1.31l-1.37-20a4.21,4.21,0,0,1,.25-1.8,3.13,3.13,0,0,1,1.55-1.47,3.08,3.08,0,0,1,2-.46,3.64,3.64,0,0,1,1.65.81L79.45,46.2a3,3,0,0,1,.86,1.08,2.66,2.66,0,0,1,.34,1.28,3.46,3.46,0,0,1-.24,1.28,4,4,0,0,1-1.76,2,3,3,0,0,1-3.68-.5Zm-7-2.25,2.88-1.56-3.43-3.18Z"/><path class="cls-4" d="M90.49,48.92A4.7,4.7,0,0,1,89,48.69a6.79,6.79,0,0,1-2.56-1.59l-13.85-14a7,7,0,0,1-.69-.79,5.18,5.18,0,0,1-.7-1.22,5.53,5.53,0,0,1-.39-2.6,6,6,0,0,1,.71-2.3,7.13,7.13,0,0,1,1.34-1.72,6.49,6.49,0,0,1,2-1.26,6.14,6.14,0,0,1,3.27-.36,5.54,5.54,0,0,1,3.37,1.92L85.28,29l-.09-5.92a6,6,0,0,1,3.65-5.69A6.86,6.86,0,0,1,91,16.94h.43a6.23,6.23,0,0,1,1.83.26,5.74,5.74,0,0,1,2.13,1.12A5.51,5.51,0,0,1,97,20.47a5.59,5.59,0,0,1,.4,1.37,4.84,4.84,0,0,1,0,1.21C96.83,42.93,96.83,43,96.83,43a7.09,7.09,0,0,1-.83,2.9,5.82,5.82,0,0,1-3,2.49A6.43,6.43,0,0,1,90.49,48.92Z"/><path class="cls-5" d="M90.49,47.84a3.46,3.46,0,0,1-1.12-.18,5.75,5.75,0,0,1-2.16-1.34l-13.83-14a6.87,6.87,0,0,1-.59-.68,4,4,0,0,1-.56-1,4.38,4.38,0,0,1-.32-2.08,4.85,4.85,0,0,1,.59-1.89,5.8,5.8,0,0,1,1.13-1.45,5.34,5.34,0,0,1,1.64-1.05,4.79,4.79,0,0,1,1.84-.36,6.33,6.33,0,0,1,.86.06,4.6,4.6,0,0,1,2.72,1.57l5.72,6.45-.14-8.82a4.92,4.92,0,0,1,.87-3,4.84,4.84,0,0,1,2.11-1.71A5.81,5.81,0,0,1,91.08,18h.36a5.59,5.59,0,0,1,1.53.21,4.94,4.94,0,0,1,1.74.92A4.44,4.44,0,0,1,96,20.88,4.22,4.22,0,0,1,96.3,22a4.06,4.06,0,0,1,0,1s-.56,19.9-.56,19.92a6,6,0,0,1-.71,2.46,4.8,4.8,0,0,1-2.48,2A5.49,5.49,0,0,1,90.49,47.84Z"/><path class="cls-6" d="M88.09,36.27l-.2-13.19a3.22,3.22,0,0,1,.57-2,3.18,3.18,0,0,1,1.41-1.15,4,4,0,0,1,1.31-.3,3.76,3.76,0,0,1,1.34.15,3.09,3.09,0,0,1,1.16.61,2.78,2.78,0,0,1,.79,1.1,3.29,3.29,0,0,1,.23.74,2.28,2.28,0,0,1,0,.64l-.56,19.92a4.44,4.44,0,0,1-.5,1.79A3.27,3.27,0,0,1,92,45.88a3,3,0,0,1-2.07.25,4.25,4.25,0,0,1-1.55-1L74.54,31.2a4.41,4.41,0,0,1-.46-.51,2.39,2.39,0,0,1-.35-.63,2.7,2.7,0,0,1-.21-1.31,3.44,3.44,0,0,1,.39-1.25,4.23,4.23,0,0,1,.83-1.06,3.84,3.84,0,0,1,1.15-.74,3.35,3.35,0,0,1,1.82-.19,3,3,0,0,1,1.77,1Z"/><path class="cls-4" d="M105,43.29a4.35,4.35,0,0,1-.51,0,6.53,6.53,0,0,1-2.18-.54,6,6,0,0,1-2-1.4A5.47,5.47,0,0,1,99.12,39,5.66,5.66,0,0,1,99,36.39l3.3-19.63A6.92,6.92,0,0,1,103.39,14a5.7,5.7,0,0,1,3.36-2.13,7.13,7.13,0,0,1,1.82-.26,5,5,0,0,1,2.07.43,6.4,6.4,0,0,1,2.45,2l12,15.55a5.66,5.66,0,0,1,1.08,2.23,5.33,5.33,0,0,1,0,2.63,6,6,0,0,1-1,2.15,6.86,6.86,0,0,1-1.6,1.58,6.47,6.47,0,0,1-3.72,1.2,5.67,5.67,0,0,1-4.74-2.66l-.54-.77-3.42.92-.13,1.06a6.54,6.54,0,0,1-1.46,3.38,5.63,5.63,0,0,1-2.82,1.78A6.4,6.4,0,0,1,105,43.29Z"/><path class="cls-5" d="M105,42.21h-.43a5.42,5.42,0,0,1-1.82-.46,4.78,4.78,0,0,1-1.61-1.14,4.47,4.47,0,0,1-1-1.88,4.58,4.58,0,0,1-.14-2.1l3.32-19.68a5.72,5.72,0,0,1,.93-2.35A4.72,4.72,0,0,1,107,12.88a6.22,6.22,0,0,1,1.54-.22,3.88,3.88,0,0,1,1.62.33,5.41,5.41,0,0,1,2,1.67l12,15.55a4.62,4.62,0,0,1,.9,1.86,4.31,4.31,0,0,1,0,2.11,4.92,4.92,0,0,1-.79,1.76A5.64,5.64,0,0,1,123,37.27a5.36,5.36,0,0,1-1.73.81,5.14,5.14,0,0,1-1.37.19A4.53,4.53,0,0,1,116,36.08l-1-1.39L110.21,36,110,37.77a5.4,5.4,0,0,1-1.2,2.8A4.56,4.56,0,0,1,106.51,42,5.65,5.65,0,0,1,105,42.21Z"/><path class="cls-6" d="M115.74,32.83l-7,1.87-.35,2.87a3.8,3.8,0,0,1-.82,1.93,3,3,0,0,1-1.48,1,3.91,3.91,0,0,1-1.36.12,3.82,3.82,0,0,1-1.29-.32,3.22,3.22,0,0,1-1.07-.76,2.78,2.78,0,0,1-.64-1.2,2.88,2.88,0,0,1-.12-1.37l3.32-19.72a4.2,4.2,0,0,1,.67-1.69,3.13,3.13,0,0,1,1.84-1.07,3.1,3.1,0,0,1,2.08,0,3.65,3.65,0,0,1,1.42,1.17l12,15.6a3,3,0,0,1,.58,1.25,2.47,2.47,0,0,1,0,1.32A3.13,3.13,0,0,1,123,35a3.86,3.86,0,0,1-1,.94,3.79,3.79,0,0,1-1.22.58,3,3,0,0,1-3.46-1.35ZM109.42,29l3.16-.85L110,24.26Z"/><path class="cls-4" d="M133,37.34c-3.53,0-5.73-2.18-5.91-5.83l-.86-17.86a5.78,5.78,0,0,1,1.69-4.59A6.12,6.12,0,0,1,132,7.32h.32a6.15,6.15,0,0,1,3.88,1.33,5.75,5.75,0,0,1,2.16,4.42l.57,11.79.89-.05h.35a5.55,5.55,0,0,1,4.21,1.76,6.62,6.62,0,0,1,.41,8.2A5.53,5.53,0,0,1,140.4,37l-7,.34Z"/><path class="cls-5" d="M133,36.26c-2.92,0-4.68-1.75-4.83-4.8l-.86-17.86a4.72,4.72,0,0,1,1.36-3.76,5.05,5.05,0,0,1,3.36-1.44h.27a5.13,5.13,0,0,1,3.21,1.11,4.64,4.64,0,0,1,1.75,3.62L137.9,26l2-.1h.3a4.45,4.45,0,0,1,3.41,1.42,5.22,5.22,0,0,1,1.35,3.35,5.34,5.34,0,0,1-1,3.48,4.49,4.49,0,0,1-3.57,1.78l-7,.34Z"/><path class="cls-6" d="M133.31,34.63q-3.34.16-3.51-3.25L129,13.52a3.06,3.06,0,0,1,.87-2.52,3.43,3.43,0,0,1,2.31-1,3.54,3.54,0,0,1,2.41.75,3.1,3.1,0,0,1,1.12,2.43l.7,14.48,3.59-.17a2.91,2.91,0,0,1,2.43.88,3.56,3.56,0,0,1,.93,2.34,3.68,3.68,0,0,1-.7,2.44,2.89,2.89,0,0,1-2.34,1.13Z"/><path class="cls-4" d="M23.83,79.23h0c-10.43,0-16.09-3.57-18.54-5.69L5,73.3,5.14,73c1.76-5.19,2.27-18.66,1.5-40l0-1.32,1,.91a21.05,21.05,0,0,0,2,1.69l.12.08a21.47,21.47,0,0,0,12.37,4h.81c5.11,0,10.94-1.26,18.36-4l.08,0c.86-.31,1.7-.63,2.51-1,6.68-2.63,13.83-6,21.4-9.64,9.83-4.69,20-9.54,30.6-13.4l.39-.14.25-.1.19-.06c.82-.3,1.66-.59,2.49-.87l1-.35.62-.2.65-.2,1.35-.42.58-.18a117.6,117.6,0,0,1,11.54-2.95,112.1,112.1,0,0,1,23-2.63c9.16,0,17,1.51,23.43,4.48l.23.12a36.44,36.44,0,0,1,17.72,15.68l.52.94-1.07-.15a21.37,21.37,0,0,0-2.82-.2c-8.09,0-10.84,5.25-11,5.47a2.14,2.14,0,0,0,.17,2.23,34.81,34.81,0,0,1,6.63,17.18l.11,1.37-1-.92C164.78,42.81,155.72,40,143.92,40c-21.08,0-48.86,9-76.22,24.65C50.79,74.33,36,79.23,23.83,79.23ZM6.27,73c2.47,2,7.85,5.2,17.56,5.2h0c12,0,26.59-4.86,43.33-14.44C94.68,48,122.66,38.93,143.92,38.93c11.43,0,20.37,2.6,26.61,7.73a34,34,0,0,0-6.29-15.29A3.23,3.23,0,0,1,164,28c.13-.25,3.17-6.06,11.92-6.06.61,0,1.25,0,1.9.09A35.54,35.54,0,0,0,161.12,7.75l-.29-.15c-6.21-2.89-13.94-4.36-22.94-4.36A110.85,110.85,0,0,0,115.1,5.85a114.63,114.63,0,0,0-11.43,2.92l-.59.18-1.34.42-.64.2-.61.2-.7.23-.33.11L97,11l-.17.06-.26.1-.38.14C85.61,15.12,75.47,20,65.66,24.63c-7.58,3.62-14.75,7-21.47,9.67-.81.33-1.66.65-2.51,1l-.1,0C34,38.06,28.09,39.34,22.85,39.34H22A22.6,22.6,0,0,1,9,35.15l-.12-.09c-.39-.29-.77-.6-1.15-.92C8.45,54.47,8,67.52,6.27,73Z"/><path class="cls-7" d="M98.42,7.05l-2.52.88C96.47,7.72,97.32,7.41,98.42,7.05Z"/><path class="cls-8" d="M40.48,32.25h0c-.5.24-9.17,4.29-18.31,3.84h0a21.16,21.16,0,0,1-11.16-3.57l-.11-.08A20.84,20.84,0,0,1,4.1,24.22s0-.32-.07-.86c0-.3,0-.68,0-1.1C4,16.57,6.45,2,34.62,26.85l.93.83Q37.91,29.78,40.48,32.25Z"/><path class="cls-9" d="M171.29,58.53c0-.07-.5-.59-1.16-1.31a34.94,34.94,0,0,0-5.25-4.88L167,53.42a28.8,28.8,0,0,1,2.56,2.72,24,24,0,0,1,1.65,2.27l.05.08v0Z"/><path class="cls-10" d="M146.69,53.91a4.7,4.7,0,0,1,.51.12c-1.45-.18-2.86-.3-4.23-.34-39.91-1.45-43.68,50-82,26.24,3.25-1.59,8.66-4.12,12-6l2.29-1.29C99,83.91,108.14,46,144,52.88c1.13.21,2.29.48,3.48.79A4.18,4.18,0,0,0,146.69,53.91Z"/><path class="cls-2" d="M148.85,51.35c.3,0,.57,0,.78,0A6.82,6.82,0,0,0,148.85,51.35Z"/><path class="cls-11" d="M156.49,56.28c-2-3.35-4.31-4.57-6.31-4.86h-.11l-.25,0-.19,0c-.21,0-.48,0-.78,0h-.12a9.11,9.11,0,0,0-4.87,1.6,4.12,4.12,0,0,0-.89.74c-2.68,2.93.69,8.22,6.56,8.5a23.52,23.52,0,0,1,12.53,4.89C162,67,161,63.92,156.49,56.28ZM147.2,54a4.7,4.7,0,0,0-.51-.12,4.18,4.18,0,0,1,.77-.24c1.81-.4,6.5-.4,10.33,8.49C157.59,61.94,151.68,55.25,147.2,54Z"/><path class="cls-12" d="M149.82,51.38l.25,0Z"/></g></g></svg>